/* XPM */
static char *_5373b7131a942b4c53ad3618b46a6556XsVuWtB0TAzolmR[] = {
/* columns rows colors chars-per-pixel */
"64 64 256 2 ",
"   c black",
".  c #010101",
"X  c #020202",
"o  c gray1",
"O  c #040404",
"+  c gray2",
"@  c #060606",
"#  c #070707",
"$  c gray3",
"%  c #090909",
"&  c gray4",
"*  c #0B0B0B",
"=  c #0C0C0C",
"-  c gray5",
";  c #0E0E0E",
":  c gray6",
">  c #101010",
",  c #111111",
"<  c gray7",
"1  c #131313",
"2  c gray8",
"3  c #151515",
"4  c #161616",
"5  c gray9",
"6  c #181818",
"7  c #191919",
"8  c gray10",
"9  c #1B1B1B",
"0  c gray11",
"q  c #1D1D1D",
"w  c #1E1E1E",
"e  c gray12",
"r  c #202020",
"t  c gray13",
"y  c #222222",
"u  c #232323",
"i  c gray14",
"p  c #252525",
"a  c gray15",
"s  c #272727",
"d  c #282828",
"f  c gray16",
"g  c #2A2A2A",
"h  c gray17",
"j  c #2C2C2C",
"k  c #2D2D2D",
"l  c gray18",
"z  c #2F2F2F",
"x  c gray19",
"c  c #313131",
"v  c #323232",
"b  c gray20",
"n  c #343434",
"m  c #353535",
"M  c gray21",
"N  c #373737",
"B  c gray22",
"V  c #393939",
"C  c #3A3A3A",
"Z  c gray23",
"A  c #3C3C3C",
"S  c gray24",
"D  c #3E3E3E",
"F  c #3F3F3F",
"G  c gray25",
"H  c #414141",
"J  c gray26",
"K  c #434343",
"L  c #444444",
"P  c gray27",
"I  c #464646",
"U  c gray28",
"Y  c #484848",
"T  c #494949",
"R  c gray29",
"E  c #4B4B4B",
"W  c #4C4C4C",
"Q  c gray30",
"!  c #4E4E4E",
"~  c gray31",
"^  c #505050",
"/  c #515151",
"(  c gray32",
")  c #535353",
"_  c gray33",
"`  c #555555",
"'  c #565656",
"]  c gray34",
"[  c #585858",
"{  c gray35",
"}  c #5A5A5A",
"|  c #5B5B5B",
" . c gray36",
".. c #5D5D5D",
"X. c gray37",
"o. c #5F5F5F",
"O. c #606060",
"+. c gray38",
"@. c #626262",
"#. c gray39",
"$. c #646464",
"%. c #656565",
"&. c gray40",
"*. c #676767",
"=. c #686868",
"-. c DimGray",
";. c #6A6A6A",
":. c gray42",
">. c #6C6C6C",
",. c #6D6D6D",
"<. c gray43",
"1. c #6F6F6F",
"2. c gray44",
"3. c #717171",
"4. c #727272",
"5. c gray45",
"6. c #747474",
"7. c gray46",
"8. c #767676",
"9. c #777777",
"0. c gray47",
"q. c #797979",
"w. c gray48",
"e. c #7B7B7B",
"r. c #7C7C7C",
"t. c gray49",
"y. c #7E7E7E",
"u. c gray50",
"i. c #808080",
"p. c #818181",
"a. c gray51",
"s. c #838383",
"d. c #848484",
"f. c gray52",
"g. c #868686",
"h. c gray53",
"j. c #888888",
"k. c #898989",
"l. c gray54",
"z. c #8B8B8B",
"x. c gray55",
"c. c #8D8D8D",
"v. c #8E8E8E",
"b. c gray56",
"n. c #909090",
"m. c gray57",
"M. c #929292",
"N. c #939393",
"B. c gray58",
"V. c #959595",
"C. c gray59",
"Z. c #979797",
"A. c #989898",
"S. c gray60",
"D. c #9A9A9A",
"F. c #9B9B9B",
"G. c gray61",
"H. c #9D9D9D",
"J. c gray62",
"K. c #9F9F9F",
"L. c #A0A0A0",
"P. c gray63",
"I. c #A2A2A2",
"U. c gray64",
"Y. c #A4A4A4",
"T. c #A5A5A5",
"R. c gray65",
"E. c #A7A7A7",
"W. c gray66",
"Q. c #A9A9A9",
"!. c #AAAAAA",
"~. c gray67",
"^. c #ACACAC",
"/. c gray68",
"(. c #AEAEAE",
"). c #AFAFAF",
"_. c gray69",
"`. c #B1B1B1",
"'. c #B2B2B2",
"]. c gray70",
"[. c #B4B4B4",
"{. c gray71",
"}. c #B6B6B6",
"|. c #B7B7B7",
" X c gray72",
".X c #B9B9B9",
"XX c gray73",
"oX c #BBBBBB",
"OX c #BCBCBC",
"+X c gray74",
"@X c gray",
"#X c gray75",
"$X c #C0C0C0",
"%X c #C1C1C1",
"&X c gray76",
"*X c #C3C3C3",
"=X c gray77",
"-X c #C5C5C5",
";X c #C6C6C6",
":X c gray78",
">X c #C8C8C8",
",X c gray79",
"<X c #CACACA",
"1X c #CBCBCB",
"2X c gray80",
"3X c #CDCDCD",
"4X c #CECECE",
"5X c gray81",
"6X c #D0D0D0",
"7X c gray82",
"8X c #D2D2D2",
"9X c LightGray",
"0X c gray83",
"qX c #D5D5D5",
"wX c gray84",
"eX c #D7D7D7",
"rX c #D8D8D8",
"tX c gray85",
"yX c #DADADA",
"uX c gray86",
"iX c gainsboro",
"pX c #DDDDDD",
"aX c gray87",
"sX c #DFDFDF",
"dX c gray88",
"fX c #E1E1E1",
"gX c #E2E2E2",
"hX c gray89",
"jX c #E4E4E4",
"kX c gray90",
"lX c #E6E6E6",
"zX c #E7E7E7",
"xX c gray91",
"cX c #E9E9E9",
"vX c #EAEAEA",
"bX c gray92",
"nX c #ECECEC",
"mX c gray93",
"MX c #EEEEEE",
"NX c #EFEFEF",
"BX c gray94",
"VX c #F1F1F1",
"CX c gray95",
"ZX c #F3F3F3",
"AX c #F4F4F4",
"SX c gray96",
"DX c #F6F6F6",
"FX c gray97",
"GX c #F8F8F8",
"HX c #F9F9F9",
"JX c gray98",
"KX c #FBFBFB",
"LX c gray99",
"PX c #FDFDFD",
"IX c #FEFEFE",
"UX c white",
/* pixels */
"> e d e I 5.n.A.z.~ e , < , 1 5 5 3 < 1 1 1 , , < 5 9 3 , 5 m U.K.+.6 < 2 < , , , , 1 3 1 < < 2 6 3 4 , 6 B.K.D 2 , 9 w > N  .e ",
"2 Z L :.k.A.).=XrXtXr.0 , 2 w w 5 2 < , < 1 < < < < 4 5 < 4 N h.V.' 6 , 1 , , , 7 7 3 1 < , 1 5 7 2 1 : Z ^.[.a.L 0 < , 8 0.I 3 ",
"C +.&.%.8.M.).>XuXlXT.H q i a 5 2 < < < < < < < < < < < , e R s.u.J w 3 < , , , m P 6 , < < 5 e 3 1 , 4 X.S.U.4.Y x 8 : _ W.N 4 ",
"a.o.L  .y.V.{.0XxXsXT.&.Y D r 8 u s 7 3 , < < < < < , , 1 G  .c.{ g 0 5 < , , > I F.*.8 2 7 q e < < , d +.p.P.;.f 8 5 3 M v.B.] ",
"*.N Z { <.B.~.;XnXfX.Xb.-.B 9 i a y w 0 , < < , w e 9 r M Q >.5.n 6 > 1 6 < , > y U.vXB.y q d 4 , , 2 k ^ ;.f.&.a t d c 8.#.8.K.",
"M a D U >.9._ L ;.V.b.=.B r j v s 9 p w , , < , u m B F Y } %.M q , < 5 w 1 , , > f c.9X6.9 g 1 1 , 2 d B @.p.%.J R R w.;XQ.L.L.",
"r p S L 1.r.L.V.} V c l M H K n i p p 4 < , , , 2 t c Z J F h q 9 2 , < 3 < > , , , 8 e.H.z g 0 6 3 3 i d s.R.s.w.0.y.>X=.p _ f.",
"7 g F Z | v.XX{.R.b.w.;.X.#.6.E k i e 0 5 1 < < < 2 6 0 q 0 6 8 u a 3 , > F I : < 7 w x u.H d h 4 y y 5 W 2X2X}._.W.&X#Xd : > 2 ",
"4 G j v ! g.J.I.x.h.L.l...+.q.9.{ L b y 8 5 3 , , < 1 2 2 < < 7 r w e < 7 n.) : , e x h [ A d V > 2 7 M H.iXhXdXtXwXzXq., 1 1 7 ",
"1 y 7 a R 3.a.R.z.#.#.c.F.7.@.{ ! S z p t e 3 5 6 < , , , , , 1 5 0 9 3 p ;.6 < 4 N P l A d z H 2 a L 9.E.%XtXbXCXZXqXn , 8 1 G ",
", > 1 t H ) ;.c.6.( A b ^ l.c.-./ L A M h 6 1 8 6 6 2 < , , , 3 w 7 6 6 2 8 , r n [ ^ t d 3 H C 6 l E 1.m.(.3XbXNXMXm., w 9 9 R ",
", , < q n Z E V w a q q e u Y +.X.] S s w 2 4 4 < 4 8 3 , , < 1 j 0 3 4 , > q I -.X.n 9 6 3 %.f 9 k T *.l.[.aXVXMXpXM.i j 1 e z ",
"3 < , 6 t y y 2 2 < , 6 9 q e p r f g p 9 2 5 q g k 9 y 0 1 , 0 G 0 1 2 , < ~ y.s.L 7 9 : Z 1XF.&.| <.m.OXaXcXMXCXlXoX<.V 7 4 8 ",
"4 5 3 1 1 < , < 5 1 2 6 r t 9 f N g w t 4 2 0 b b #.S u j g u S V 2 < < > m S.(.;.t 5 2 1 j.}.&XvX1X(.'.*XpXBXVXBXZX:Xm.-.{ r > ",
"1 7 t 2 , , , < < < 2 7 N m q 9 j ! W q 4 4 6 y p t h u t j b l 5 , , , 7 M.7X!.b 2 3 > M U.G c m.rXeX;X3XfXMXCXCXSXwXh.K.%XR.A ",
"u n k 6 2 1 , , < < < b :.~ J r r P @.q 5 7 w 9 5 7 4 2 2 4 4 < , < < , l :XzX&.2 2 < 2 X.%.q < f t.6XjXzXbXnXBXAXSXdXw._.xXVX=X",
" .] F y q M h 2 > , q t.D.u.| b U >.z 3 4 3 6 t f r 2 < < < < < < < < < 1 E V.a , 1 , p { m y 2 > 7 0.dXjXxXmXBXAXFXpX*..XBXNXMX",
"j.7.o.Z j +.B.i.k , } 5X&X/.7.2.j.' 3 3 d a 7 2 0 x M r 2 < < 2 5 e K t , 3 i 3 , < < c A F d q 9 y Z.cXaXaXmXVXDXHX=X^ ;XuXeXNX",
"R.I.n.a.!.*XpXwXH z XXVXcX4X].[.x.r < 9 l y p u 2 9 f C A n g t 9 7  .9.p 1 q q < < 4 h R Q Z B P 6.gXvX8X7XkXZXGXSXf.' ,XR.Y.sX",
"3X7X4XyXlXnXNXN.g p.xXBXZXMXxX7XI > < g y 3 5 h j x u x [ d.l.| p < 7 ] ..4 7 f 3 3 w n 2.@.&.5.v.4XCXnX&X=XaXZXGXnX:.>.V.o.1.,X",
"sXiXiXlXbXMXrX! ..1XzXmXBXAXGXM.2 1 4 d r 4 w W [ U k b O.c..X0X{.&.L ] -.i 5 x w w s o.w.t.H.=XeXCXAXcX].`.6XBXFXSXrXM.D j ~ 2X",
"9X+X[. XwXBXV.] !.aXgXvXVXSXtXZ , w z L L y R B.a.o.C b 6.^.5XlXDXcXU.Z.9.s 4 m v h c i.0.e.}.bXSXHXHX-Xh.A..XhXDXFXDXfXk.g ;.nX",
"sX_.f.r.i.B.$.K.7XqXsXvXCXBXz.0 0 d I ;.C.P.+X%XP.w.M C w.:XCXFXGXFXcXtXe.w 6 G H f C C.w.+.c.!.K./.gX7XC.a.V.$XvXAXnXrX.X..B.NX",
"cX%Xu.! P ~ n.2X2X5XsXmXBX4XQ x l F 4.m.`.rXBXyX#X6.p j 0.>XDXFXGXSXAXpXE 7 w ( V x I H.x.U ^ ! p 6 E c.N.q.,.z.(.7X0X,XW.q.%.V.",
"NX7Xz.W a q 7.%X+X6XjXMXkXD.L  .@.u.U.@XwXcXZXNX4XJ 9 x 7.eXDXFXFXbXkXN.e 7 M [ k S K m.'.T a e 1 , : 6 Z ' #.' *.9.F.~.C.1.A a ",
"ZXtXz.I t 5 L s._.9XvXzX4X3.U ^ [ | ] $.v.6XSXVXF.5 4 z d.MXAXGXNXwXOXU 8 q { J z c V 3.1Xn.d < 2 2 , , > 5 x R m N | u.t.` l , ",
"0XzX$X[ 6 6 M &.P.pXxXrX|.H k k p D o.+.J V b.rXW.d < c %XAXDXDX8X Xy.h 5 n ) j j p V o.P.dXF.V 3 q y 5 < < , m y 7 B { o.C p < ",
"0.d.#X8Xd./ ..M.0XhX>X>Xu.0 7 a l.aXZXAXgXb.j 3. X>.1 -.vXZXHXfXE.M.( t 9 T m a u t / }.g.[.zX*X@.w e i 7 1 e c 8 q g P G i 8 5 ",
"M c z =.oXqXeXrX*XY.Y.V.k 1 6 b.DXGXFXFXDXhXs.a r.h.A !.gXZXCX_.f.4.S 3 l K u u 9 r y.sXh.:.V._.`.e.l r s 4 k d S b a G u 4 2 9 ",
"r.P q < a R O.%.<.p.8.M 6 2 D tXZXDXFXGXZX1XF.M D 2.4./.>XcX6Xw.2.$.i 7 S k w 0 3 g C.V.W ~ _ } $.3.:.^ t r x ( 2.d c ! e 3 1 6 ",
"0X2X..a a j C Q  .T 0 1 p L q..X8XvXSXGXGX+X7.S i ~ -.v.[.fXR.7.0.) 2 p M 0 w 3 < F w.U V E W H A C m j 8 k U /.#.5 *.+.n t 4 r ",
"7X.XY l g s u t e 8 3 f T ] [ X.9.~.kXGXFXL.U g w V W <.b.B.h.I.XX}.B.$.k 2 8 0 s Q D g M F U Y C j d r p N C.cX4.~ Q.q.Q v l B ",
"A.:.m V z p 7 < , 4 r k a q 9 0 t x ;.`.}.~ t 8 9 s N K  .Y.uXbXBXDXJXxXS.D 6 2 w a q i x z D F A C g q t K w.3XmXgX5XC.-.~ ;.,.",
">.A c u i i t 0 2 2 8 5 2 3 4 6 7 0 h I Z q 3 4 5 9 r _ <XxX$Xn.q.n.4XMXyXI.` t < < 5 p u t f K D h v v w f  .c.,XCXhX`.z.j.8...",
"! j z g y p e t 0 < 1 < < 0 a y 0 q 9 8 7 4 4 5 1 , b ;XzX].y.~ g 4 f 3.!.~.f.Q y 2 6 r 5 4 0 K 7.5.A i n y F d.{.hXbX<X$X).u.{ ",
"g c Y J V T v b w , , , w D I H x 7 5 5 4 7 q 5 < 1 j.mXyX}.>.:.p.[ 6 : f _ &.| Z 8 3 0 4 1 5 v 7.OX,X8.l N g l.@XiXNXcXkX|.h...",
"e C  .l.P.0.Q Y r , , 1 v O.Z m ] ! V c l s 7 5 4 N @XaXgXi./ ' @.U.v.V < < e g z h 9 1 4 4 2 1 k d.6XaXe.Z j :.wXvXCXxXyX%Xc.| ",
"-.E ( s.XXl.,.o.i > < 5 l L 4 , 7 f l f r u S H 8 ;.'.;X'.^ n : ; w ' 8.! e < 1 3 5 p 0 < 1 2 1 > 4 [ +X4X' B R 9XVXcX4X[.I.l.@.",
"t.v.d.y.D.C.v.1.w , , 7 y s 3 , , 3 h / y..XW.Z f 7.F.!.q.[ i 5 1 1 3 y S C r 2 1 3 4 y 6 3 < < < , 5 5.fXu.F L pXZX9X!.l.;...( ",
"3.| 6.K.^.`.!._ 2 < , 6 t 6 1 , , < e [ ].BXV.0 N @.a.l.a.{ v i 3 1 2 6 e u w 3 < 1 6 8 w e t , < < > ] zXB.J T gXzX;Xn.[ A h y ",
",._ V H q. XK.d 1 < < < t u 2 < , , , 1 M k.E 5 z ] %.V.A.%.Q u 6 7 3 3 4 y j 0 < < 5 q q l w.^ 4 , , a.VXc.S X.MXcX).d.o.a 9 6 ",
"g m z w 8 L D 4 , 1 < < 1 y i 3 2 , , > > 6 4 3 k K 9.=XT.h.[ 6 r w 5 2 3 3 9 y < < 3 r 0 7 B O.8 > e ].tX<.M =.;XNXNX/.c. .F x ",
"2 9 t 7 , , < < < < 1 < , 3 i 0 5 < 1 g 7 ; : 4 x G =XiX%XU.B 2 7 0 3 1 < 5 < 1 < < 4 u 0 7 , 8 5 > a I.^.^ V ..g.|.jXGXkXY.#.-.",
"< 4 p x t 6 5 6 2 , < 2 1 3 d e 7 1 , s.I.) D ' ) n.AXMXdXk.4 1 2 9 3 2 1 2 < < 3 < q i 9 5 3 q 7 , 0 *.b.~ Z J #.h.W.yXAX-Xp.Z.",
", < 2 e f p q 3 < , < 6 1 7 m w 9 2 , A.VX!.q.1.2.l.XXzXBX=., , 6 9 r 3 2 < , 3 t 5 d 0 e 3 2 8 w < < x ] $.L b V 8.E.^.:X].}./.",
"< < , < 1 1 1 < , < 5 6 < g A 6 r < , +.0.A s 0 6 5 u _ ].6X6.s 1 e r 1 1 < , 0 m 0 u 4 6 < 1 4 d 4 , 3 0 j ! Z h H U.8X2X,XsX<X",
"< , , , , , , < 1 4 5 2 1 z s r y , 1 0 0 6 r w 6 4 < ; e d.[.1.b 3 , < < , , q ( d e 2 < , , r ( h < , < > e J h s ~ J.gXFXNXlX",
"3 , 1 , < 1 2 1 3 4 1 2 2 h q C f , 1 4 9 k q 3 4 2 < < , 9 e.8._ k 2 < , < < 3 o.| u 0 1 < 7 ~ [ N g 1 < < > k z t c K >.@XgXnX",
"< 7 k e 1 1 4 2 4 2 < 4 2 u 8 W | 4 1 3 c t e k e 4 < < 2 , c *.C O.r > , < < > B F.;.v j x T X.L M X.M 4 < , w k 0 g W U J B.;X",
"< r 7 8 7 < < 3 3 < 2 8 3 8 9 l K.&.1 q x 0 S q 0 s 8 1 1 3 4 ~ c Q 6 6 1 , , < < ( OX~.u.3.3.] N ] E K 8 1 , 9 a 6 g ! K A V k.",
"2 6 , , , , , , < < 9 8 7 2 7 2 G } 1 y i g j < 3 e y 8 1 4 < M U p 5 0 8 4 < < , , n 1.a.2.! N Y G R F q 5 < w q 4 q F } M f U ",
", , , > , , , < 1 5 9 4 9 6 1 2 , 4 1 r y d u 1 , < 5 r 2 6 1 g l 3 9 6 1 6 5 1 , < < 2 0 u h n N ~ 1.S f e 4 e 2 3 7 q #.L i s ",
", > 4 d a 0 1 1 4 8 5 q 0 r 7 < , 4 3 8 u y t 0 3 1 w u 3 8 1 t 7 7 d y 1 < 3 6 2 1 7 r a m Q 4.l.v.4.T Z p 9 6 < 4 4 3 :.` q 0 ",
"> s O.L a w 7 5 9 6 r B b B u 3 , 4 6 2 w a e 9 r t y 5 7 5 1 7 9 i ~ y 1 1 < 2 7 5 4 j ` d.%XfXXXR.w.o.R i 7 1 3 3 1 y c.T 5 6 ",
"r r.D , > , 1 6 r 5 j @.$.K 2 > , 6 u 2 3 q x a 9 9 0 q 8 1 < 1 y p R L u 2 < < 1 7 5 2 f =.'.pX<X].k.r.R 0 2 3 3 1 < W j.p < 4 ",
"} X.> , , < , 6 a 8 a h.T.Z.K a e h i e < 1 6 i d i w 6 1 , , , 2 t d l b u 2 , < 4 w w 2 4 ! *XpX@XR.h.M 2 3 4 5 3 2 X.{ 2 < 2 ",
"' q < 1 4 < 5 M x a 2 :.0XkX}.8.[ B w i t 1 , < 1 1 < , , f ..k < , 7 f z f q 3 < < 2 u a 1 A .X6X#X+X,.q 2 8 2 p 8 3 ^ G 2 3 2 ",
"t 2 2 5 7 < h J b V w q g.wX:XS.o.h 0 3 u Z i 3 < 1 2 5 k ..h.6.K 0 , < t B N a 8 < , 6 0 s 2.'.I.T.C.Z < 8 5 4 P l 1 V V 4 0 6 ",
"3 7 4 9 4 8 b g d N K r 2 n R A y 6 5 7 B E ` _ M y i g K ] ` _ ) K u 2 , 3 h F S h 5 < j Y t.j.w.1.I 6 0 r 1 7 3.@., p b 7 6 r ",
"q 9 0 9 3 w j e p m G / C e 4 4 8 q y m Q ~ F ( :.&.A z m V G H N c g q 2 , < 7 z T ! Z ) W <.| R v 9 y Z u 1 1 y M 2 6 d 0 < < ",
"y 9 e 0 6 w d 0 p a l ' ` I D M v l f v G J F z z } z.8.J x j z m j r 6 2 < < 2 6 e V %.E L P C 0 2 9 | ] i 3 4 , , 1 < 0 a q 4 ",
"q y w q 0 0 i q q e 6 M ] W N n k x r 1 f L Z z i 3 n +X].| j y y a s q 1 < < , 1 7 r u t K N K v 2 [ F...t 3 0 a r < , < 8 z D ",
"u u 8 4 q 8 w 0 7 8 0 i x D C d 0 8 d y 9 G D h t 3 I 5XkX X<.v q 8 9 r r 7 4 3 < < 8 s 7 g ' 5.n.n.$X/.Q 7 6 u e M H e < 4 e x ",
"q u 0 1 q q 7 9 8 6 i N ^ | W b i 4 1 w 7 S L p e w 9.-XvX5XH.-.z 7 3 4 9 e e w 4 1 w w 5 4 i $.).iXbXT.N 1 8 r 6 < U Z 3 e z M "
};
