/* XPM */
static char *move_with_FX_copy1679405576[] = {
/* columns rows colors chars-per-pixel */
"64 64 92 1 ",
"  c None",
". c #1E1622",
"X c #1F1924",
"o c #221A25",
"O c #251D29",
"+ c #281F2C",
"@ c #29202E",
"# c #2E2333",
"$ c #312636",
"% c #322936",
"& c #322738",
"* c #362A3D",
"= c #382C3F",
"- c #3A313D",
"; c #3A2E42",
": c #3D3145",
"> c #3F3248",
", c #403546",
"< c #433B46",
"1 c #423549",
"2 c #463A4C",
"3 c #483D4E",
"4 c #4B3E53",
"5 c #4B424F",
"6 c #4D4253",
"7 c #514457",
"8 c #534A56",
"9 c #524558",
"0 c #564A5D",
"q c #594E5F",
"w c #5B4D62",
"e c #5E5463",
"r c #615666",
"t c #605863",
"y c #64556B",
"u c #655A6C",
"i c #685F6D",
"p c #675870",
"a c #6A5B72",
"s c #6B636D",
"d c #6E6373",
"f c #716477",
"g c #716A74",
"h c #73647B",
"j c #776E7C",
"k c #796F7E",
"l c #7B717F",
"z c #776780",
"x c #7B6C83",
"c c #7D7382",
"v c #817785",
"b c #817886",
"n c #84748D",
"m c #857C89",
"M c #877691",
"N c #887792",
"B c #8C7A95",
"V c #8E7C98",
"C c #917F9A",
"Z c #8B828F",
"A c #8D8491",
"S c #908694",
"D c #938997",
"F c #94829D",
"G c #9A909E",
"H c #9784A0",
"J c #9986A3",
"K c #9C89A5",
"L c #9F8CA8",
"P c #9D95A1",
"I c #A28FAB",
"U c #A29AA5",
"Y c #A491AD",
"T c #A69DA9",
"R c #A793B1",
"E c #AA96B4",
"W c #AC98B6",
"Q c #AE9AB8",
"! c #B29DBC",
"~ c #AAA1AD",
"^ c #ACA4B0",
"/ c #B5ACB8",
"( c #B8AFBB",
") c #BBB3BF",
"_ c #BEB6C1",
"` c #BFB8C3",
"' c #C2BAC5",
"] c #C7BFC9",
"[ c #CBC4CE",
"{ c #CFC7D1",
"} c #CFC8D2",
"| c #DBD3DD",
/* pixels */
"                                                                ",
"                                                                ",
"                                                                ",
"                               ************                     ",
"                              *=*=*=*=*=*;**                    ",
"                             *=*=*******=***=                   ",
"                           =*****=****=*=*=*=*=                 ",
"                           ::;=====;=;==*=*=*=;                 ",
"                           2::;;;::::;;==*=***;                 ",
"                           65:::,1232<::;==**;,                 ",
"                           ie6<370err061:=***;2w                ",
"                           Dce0edvZDScr6,:**;,4anHI             ",
"                           )PjudZT(]'Ukq3:=&*1whNJYE            ",
"                           }^bskG({||/mr6:=&*,whBJYEW           ",
"                           }~bslG({|}(mr5:*&*;4aMH              ",
"                           `PlrgA~'[]Tkq3:&&&=1      WW         ",
"                           UmiqtjZG~UZi7,*$$#&*       W         ",
"                           ge6-58tsgse5-$$@+@+#         W       ",
"                           2-%@@%%---%@@OoooOoO         WY      ",
"                           @@@X......XooooooooO         WY      ",
"                           OOX.......o.oooooXXO         EI      ",
"                          #+OOOOo@o.oooOoOOo+X+         EL      ",
"                          #+++++@@@@+@++@+@+++@#        EK      ",
"                         ;&&&&$#%@%%$$$$$$$$##;$*       RK      ",
"                        ;;**;;;&**;*****;*;&;&;;;;      YK      ",
"                       ;;;;;;;;;;=;;;;;;;;;;;;;;;;:     YH      ",
"                      &*;;;;;;;;:;:;;;;;>;;>;>;>;;>>   ILF      ",
"                     #*;>>>>>>>>::>>>>>>;>>>>;>;;>;12  LLF      ",
"                     $*;>>11>>>>>>>1>>;>;;;;;;;;>;;>1  KKF      ",
"                     &*:1111111111111>>;;;;;;;;;;;;;1  KKF      ",
"                    <12444444444444442>;;;;*;;*;**;;:  KKF      ",
"                   xfppyyyyyppppppaayw72;;*****;****:  HJF      ",
"    nBKIYYIYIIIIIIIICCBMnnnnnNNVVVVVMzy43,;****;***;1  HKF      ",
"    vFIEWEEEWEEWEEEEWRIIFVBBCHIIRREEIVzy41,*;******;2  JKF      ",
"    MFYWQWWWWWWWQQQWQWICnkhhxBJIEQ!!WLMzy4,;;*;****,9hMHL       ",
"    NFYWWQWWWWWWQEWWERCvy9330hNGIEQQWRCMfw3,*******1whNF        ",
"    MFYWWWEWWWWWEWWRICny2%@@-qfMHIREEYKBhw2;*******1wnN         ",
"       WWWWWWWWWWWEIVvp4*@.o@,0anHIRIJMze3;***&****,0an         ",
"         WWWWWWWWWRHvr5-@o.oo@-7dMFLJMa0<*###&*****,4           ",
"          WWWWWWWWYCi5=@@o.oooO:whnNMf9;#OoO#$$*****,           ",
"                   Mq,%Ooooo..o$3wyur4,#Oooo+##&**=*=           ",
"                    3*%Oooooo.o#=,11,*#+oooooO+$&**==           ",
"                     %#OooooooO+$&&#OOooo.o.oo+$&***=           ",
"                     %#@OOoooO##$$#Ooooo.ooooo##&***=           ",
"                     $$+OOOOO##&*&$@+ooooooooO+$&&**=           ",
"                     $@$##OO##&&**&$@+OooooOOO#$***=;           ",
"                     $$$#####&****&$$@+OoooOO#$%***=*           ",
"                     +@$*&*&*****;=*&$#+OOO+#$&***;**           ",
"                     ##$*=*=***;****=&##@@@#$&&****;*           ",
"                     @#&*=;=;****;*;=&&####$*&;******           ",
"                     @#&*=****=**;*******&&***&;;***=           ",
"                     @#&****;*******;*=**;***;;**=*=*           ",
"                     @#&****=******;=*=*;;**;*******=           ",
"                     @#&****************&****;&;*****           ",
"                      #&&*****&*&*&**&*&&*&&&&;&**&*            ",
"                       &*&$&$&&&&&$$$&$&&&&&$$$$&&*             ",
"                        &&&##$$$########$#$###$$#&              ",
"                         $#&#$#######@##@#@######               ",
"                                ##@#@@O@@+@@+@@#                ",
"                                 OOOOOOOOOOOOO+                 ",
"                                  o@OOoOOOXOOO                  ",
"                                   oooOXXOXOO                   ",
"                                    XXXXXXXX                    ",
"                                    XXXXXXXX                    "
};
