/* XPM */
static char *_65e30d8652e48c5fb15f3551bbdb8a8etqH5nEvwEXU7KNy[] = {
/* columns rows colors chars-per-pixel */
"64 64 256 2 ",
"   c black",
".  c #010101",
"X  c #020202",
"o  c gray1",
"O  c #040404",
"+  c gray2",
"@  c #060606",
"#  c #070707",
"$  c gray3",
"%  c #090909",
"&  c gray4",
"*  c #0B0B0B",
"=  c #0C0C0C",
"-  c gray5",
";  c #0E0E0E",
":  c gray6",
">  c #101010",
",  c #111111",
"<  c gray7",
"1  c #131313",
"2  c gray8",
"3  c #151515",
"4  c #161616",
"5  c gray9",
"6  c #181818",
"7  c #191919",
"8  c gray10",
"9  c #1B1B1B",
"0  c gray11",
"q  c #1D1D1D",
"w  c #1E1E1E",
"e  c gray12",
"r  c #202020",
"t  c gray13",
"y  c #222222",
"u  c #232323",
"i  c gray14",
"p  c #252525",
"a  c gray15",
"s  c #272727",
"d  c #282828",
"f  c gray16",
"g  c #2A2A2A",
"h  c gray17",
"j  c #2C2C2C",
"k  c #2D2D2D",
"l  c gray18",
"z  c #2F2F2F",
"x  c gray19",
"c  c #313131",
"v  c #323232",
"b  c gray20",
"n  c #343434",
"m  c #353535",
"M  c gray21",
"N  c #373737",
"B  c gray22",
"V  c #393939",
"C  c #3A3A3A",
"Z  c gray23",
"A  c #3C3C3C",
"S  c gray24",
"D  c #3E3E3E",
"F  c #3F3F3F",
"G  c gray25",
"H  c #414141",
"J  c gray26",
"K  c #434343",
"L  c #444444",
"P  c gray27",
"I  c #464646",
"U  c gray28",
"Y  c #484848",
"T  c #494949",
"R  c gray29",
"E  c #4B4B4B",
"W  c #4C4C4C",
"Q  c gray30",
"!  c #4E4E4E",
"~  c gray31",
"^  c #505050",
"/  c #515151",
"(  c gray32",
")  c #535353",
"_  c gray33",
"`  c #555555",
"'  c #565656",
"]  c gray34",
"[  c #585858",
"{  c gray35",
"}  c #5A5A5A",
"|  c #5B5B5B",
" . c gray36",
".. c #5D5D5D",
"X. c gray37",
"o. c #5F5F5F",
"O. c #606060",
"+. c gray38",
"@. c #626262",
"#. c gray39",
"$. c #646464",
"%. c #656565",
"&. c gray40",
"*. c #676767",
"=. c #686868",
"-. c DimGray",
";. c #6A6A6A",
":. c gray42",
">. c #6C6C6C",
",. c #6D6D6D",
"<. c gray43",
"1. c #6F6F6F",
"2. c gray44",
"3. c #717171",
"4. c #727272",
"5. c gray45",
"6. c #747474",
"7. c gray46",
"8. c #767676",
"9. c #777777",
"0. c gray47",
"q. c #797979",
"w. c gray48",
"e. c #7B7B7B",
"r. c #7C7C7C",
"t. c gray49",
"y. c #7E7E7E",
"u. c gray50",
"i. c #808080",
"p. c #818181",
"a. c gray51",
"s. c #838383",
"d. c #848484",
"f. c gray52",
"g. c #868686",
"h. c gray53",
"j. c #888888",
"k. c #898989",
"l. c gray54",
"z. c #8B8B8B",
"x. c gray55",
"c. c #8D8D8D",
"v. c #8E8E8E",
"b. c gray56",
"n. c #909090",
"m. c gray57",
"M. c #929292",
"N. c #939393",
"B. c gray58",
"V. c #959595",
"C. c gray59",
"Z. c #979797",
"A. c #989898",
"S. c gray60",
"D. c #9A9A9A",
"F. c #9B9B9B",
"G. c gray61",
"H. c #9D9D9D",
"J. c gray62",
"K. c #9F9F9F",
"L. c #A0A0A0",
"P. c gray63",
"I. c #A2A2A2",
"U. c gray64",
"Y. c #A4A4A4",
"T. c #A5A5A5",
"R. c gray65",
"E. c #A7A7A7",
"W. c gray66",
"Q. c #A9A9A9",
"!. c #AAAAAA",
"~. c gray67",
"^. c #ACACAC",
"/. c gray68",
"(. c #AEAEAE",
"). c #AFAFAF",
"_. c gray69",
"`. c #B1B1B1",
"'. c #B2B2B2",
"]. c gray70",
"[. c #B4B4B4",
"{. c gray71",
"}. c #B6B6B6",
"|. c #B7B7B7",
" X c gray72",
".X c #B9B9B9",
"XX c gray73",
"oX c #BBBBBB",
"OX c #BCBCBC",
"+X c gray74",
"@X c gray",
"#X c gray75",
"$X c #C0C0C0",
"%X c #C1C1C1",
"&X c gray76",
"*X c #C3C3C3",
"=X c gray77",
"-X c #C5C5C5",
";X c #C6C6C6",
":X c gray78",
">X c #C8C8C8",
",X c gray79",
"<X c #CACACA",
"1X c #CBCBCB",
"2X c gray80",
"3X c #CDCDCD",
"4X c #CECECE",
"5X c gray81",
"6X c #D0D0D0",
"7X c gray82",
"8X c #D2D2D2",
"9X c LightGray",
"0X c gray83",
"qX c #D5D5D5",
"wX c gray84",
"eX c #D7D7D7",
"rX c #D8D8D8",
"tX c gray85",
"yX c #DADADA",
"uX c gray86",
"iX c gainsboro",
"pX c #DDDDDD",
"aX c gray87",
"sX c #DFDFDF",
"dX c gray88",
"fX c #E1E1E1",
"gX c #E2E2E2",
"hX c gray89",
"jX c #E4E4E4",
"kX c gray90",
"lX c #E6E6E6",
"zX c #E7E7E7",
"xX c gray91",
"cX c #E9E9E9",
"vX c #EAEAEA",
"bX c gray92",
"nX c #ECECEC",
"mX c gray93",
"MX c #EEEEEE",
"NX c #EFEFEF",
"BX c gray94",
"VX c #F1F1F1",
"CX c gray95",
"ZX c #F3F3F3",
"AX c #F4F4F4",
"SX c gray96",
"DX c #F6F6F6",
"FX c gray97",
"GX c #F8F8F8",
"HX c #F9F9F9",
"JX c gray98",
"KX c #FBFBFB",
"LX c gray99",
"PX c #FDFDFD",
"IX c #FEFEFE",
"UX c white",
/* pixels */
"* * * = $   = 2X) d.T.B tXh oX>.  o * * * * * * * & X   b.Y.O         r.{.  . % * * * * * * * +   J 0Xa :X} e.^.c cXSXI   = * * ",
"aXaXaXzXI.o X 8 Q.r.+..XN =X` $   S sXaXaXaXaXaXdX0Xp   * 3._.$     m.M.<   ; OXjXaXaXaXaXaXzXO.  + V >XI J.s.| #Xg q + t.xXaXaX",
"g g u x.UX|.6 `.o.s.F.W &XH ^.' / bXlXA d g g a ~ AXaXN 7.Z.^ +X9 E.>.9.S.r 2XPX1.u g g g k 1XFX8.n @XS [.%.t.P.U $Xe B.PX_.a g ",
"      7.5Xc @ g P.h.0 o K |.o.: > 4.pX;         s lX[ * 4 6./.M o s D.v.r # F sX^           %XV.7 & U .X{ % > ,.'.B # y `.P.    ",
"    2.bXOX  X G.7.1 Z V.X G T.!   H KXXXi     V 1XVXu   -.D.c * P.y e h.j.  $ tXaX]     : Y.LX,.  k /.^ . q.o.# O.!.4   m.GXx.O ",
"    Y.*Xc 1 I.>., ! qXPXK.> S A.%.$ :.MXz     / vX[ O y.x.l e _.UX;XN 0 e.C.$ J rXu.    ; gXk.< L U.~ $ d.ZXzX,.%  .R.j e U.,X  ",
"O 5.nXc.y D.#.*   k.0Xg.bX7   m h.6.0 MX[.l H :XtX> j.r.s   M BXw.kX#.  4 <.C.2 '.pX .9 H.GXA ' M.U     9XK.|.{.    _ A.S X.AXG.",
"  <XXXB w w.p.5 ' tXR.h SXZ.q W l.' : 4.BX^ 8.kXO.- $.l.V j ^.cX7 ,X;XJ i h.4.1 R 5XR.h ZXj.7 H g.$.< p.AX/ 8.bX1.: 6.a.x p G.UX",
"w.bX#.  9 e.j.> '.0X/ 6 v.DXZ R b.`     9X~.%X}.    $.n.n X.ZXt.> %.kXc.0 v.4.-   k.uXB.nX7   H z.&.9 mXR.d V oXtX; q.f.x   N UX",
"UX.Xz p s.k.# ^ sXu.    - hXC.8 A F.o.$ 8.MXdXO.* :.F.a f ).2X      Y.2XD > V.q.5 L 1XLXn.- E C.} = q.BXl     ^ MX&.@ 3.b.C 0 V.",
"R.9 h k.e.  # yX9X~     ; C.HX,.  s P.X.o ,._ * :.H.<   M.CXp.O     &.hX+X    v.r.9 b h.  ! J.P   H JX^.t     n +XCXy   X.Z.G   ",
"  n Z.x.g & ! gXQ           #XL.y - / ).#.= 5 6.Q.L % l XXK.          4.0XF $ M F.j.a o ^ /.%.3 5 y.iX&         i zX&.> w 9.Y.W ",
"+ L.1.q.m.w *XLXw.v V V V Z 6XVX2.c {.I /.:.u.G.~ }.e c.GX|.m V V V v V.PX(.5 E.$.a.S.` .XT E./ W hXcXR N V V m  .SXwXn <.B.' <X",
"    z.M.6   % _.uXeXwXeXwXeXuX[   # F &XE G.d.X.XXz O   7.pXeXwXeXwXeXpXZ.    t T.r.%.}.S @X{ *   M 9XeXwXeXeXwXtX:Xw   > 5.W.O ",
"      >.(.7 o 0 - 1 5 & w $ 8 ; + ( =XN XX! >.T.J ,XZ o < 4 & w # 9 : , 6 o p #X| d.N.l :XZ ).6.% $ q # 0 ; < 6 % w + : n.m.    ",
"      # | $X7 oXP 7.V.j >Xe !... .'.B 1XN     _ +Xy %XW g.B.G >Xj {.O.1.Q.v 1Xz L.w.    0 ;X! M.d.B *X8 }.Q ,.H.s ,Xu U.y.*     ",
"      4./.> o 6 > 2 5 ; 9 - 7 =   E >Xj O     @ : X > /.1.O.{.j >XG B.g.W =Xe . - &     X 9 {.1.X # 8 - 7 , 1 5 ; 8 O # c.Z.o   ",
"    M.M.<   ; OXjXaXaXaXaXaXzXO.  + V :Xl   X o       4 - * 5 o 8 @ < > $ 7 .     X o   < $X' $   S sXsXaXaXaXaXfX9Xp   * 3.).% ",
"+ W.>.9.S.r 2XPX1.u g g g k 1XFX8.n @XM @   1.S.                                  8.N.  o a _.' / bXlXA d g g a ~ AXaXN 7.Z.~ 9X",
"  d D.v.r # F sX^           %XV.7 & U |.g   y.JX4XOX8                       + T.5XCX!.  , _.O.: > 4.pX;         s lX[ * 4 6.~.S ",
"{.t e h.j.  $ tXaX]     : Y.LX,.  k /./ -   p.,X;.PX3X$X%X%X%X%X%X%X%X%X%X%X=XUXs.!.^.  @ J T.!   H KXXXi     V 1XVXu   -.D.b   ",
"UX-XN 0 e.C.$ J rXu.    ; gXk.< L U.^ X     d.'.$ / | | | | | | | | | | | | | ] ; h.).      G A.%.$ :.MXz     / vX[ O y.x.l y R.",
";.lX#.  4 <.C.2 '.pX .9 H.GXA ' M.U         u.|.                                  c.~.        m h.6.0 MX[.l H :XtX> j.r.s   N UX",
"  <X;XJ i h.4.1 R 5XR.h ZXj.7 H g.&..     _ 0X X                                  c.xX:.+     / l.' : 4.BX^ 8.kXO.- $.l.V j Q.UX",
"o %.kXc.0 v.4.-   k.uXB.nX7   H l.,.X     /.tX{                                   J $X0X.     ' b.`     9X~.%X}.    $.n.n X.NXz.",
"    Y.2XD > V.q.5 L 1XLXn.- E C...    o ~ yXk.                                      { nX#.=     F F.o.$ 8.MXdXO.* :.F.a f ).,X  ",
"    &.hX+X    v.r.9 b h.  ! U.Y       O 9XeX`                                       V &XMX0       f R.o.o ,._ * :.H.<   M.CXi.O ",
"      4.0XF $ M F.j.a o / _.l       O I gX|                                           x bX..*       < /.%.= 5 6.Q.L % l XXK.    ",
"V V v V.PX(.5 E.$.a.S.] |.4       $ ^ AXyXP                                           s :XIX<.;       o R.,.u.G.~ }.e c.GX|.m V ",
"eXwXeXpXZ.    t T.r.&.).@       % @.KX9Xf                                               , OXUXg.:         M.f.X.XXz O   7.pXeXwX",
"+ 9 : , 6 o p @X| d.A.        % e.IX:X4                                                   @ W.UXP.>         6.T.J >XZ O < 4 & t ",
"+ `.` %.Y.y <XF T.d.=         s.PX;X0 X                                                     > U.UXW.X       # +.$Xb =XD t.c.c pX",
"* 7 , 1 3 X 9 $X} d.J.+       o 3.LX7X0                                                 . * ].UXZ.$         w.R.F 1Xv   > 4 ; 0 ",
"aXaXaXzXI.o . 8 Q.r.@.}.*       + ] FXpXx                                               4 :XUXe.$         S.d.| #Xd o   y.xXaXaX",
"g g u x.UX|.6 `.o.s.F.W $X8       @ K NXjXR                                           g 9XKX@.%       @ ).&.t.P.U $Xr B.PX_.a g ",
"      7.5Xc @ g P.h.0 o K .Xb       o B aX .                                          v cX^ $       4 |.} % > ,.'.B # y `.P.    ",
"    2.bXOX  X G.7.1 Z V.X G Q.~       + 8XgX..                                      F 5XMXq       l _./ . q.o.# O.!.4   m.GXx.O ",
"    Y.*Xc 1 I.>., ! qXPXK.> S A.=.    o J 9Xk.                                      } zX_ &     Y U.~ $ d.ZXzX,.%  .R.j e U.,X  ",
"O 5.nXc.y D.#.*   k.0Xg.bX7   m h.w.X     /.fX%.                                  E 2X0XX     +.M.U     9XK.|.{.    _ A.S X.AXG.",
"  <XXXB w w.p.5 ' tXR.h SXZ.q W l.] .     Y <X X                                  c.fX..O     L g.$.< p.AX/ 8.bX1.: 6.a.x p G.UX",
"w.bX#.  9 e.j.> '.0X/ 6 v.DXZ R b.`         u.|.                                  c.~.        G z.&.9 mXR.d V oXtX; q.f.x   N UX",
"UX.Xz p s.k.# ^ sXu.    - hXC.8 A F.o.X     d.'.% +.,.,.,.,.,.,.,.,.,.,.,.,.,.=.1 g.).      ! C.} = q.BXl     ^ MX&.@ 3.b.C 0 V.",
"L.8 h k.e.  # yX9X~     ; C.HX,.  s P.o.,   p.5Xq.UX%X`.'.'.'.'.'.'.'.'.'.'.|.UXm.].~.  # / J.P   H JX^.t     n +XCXy   X.Z.G   ",
"K I V.x.g & ! gXQ           #XL.y - ( ^.s   i.FX%X(.3                       X S.%XmX~.  : Y.*.3 5 y.iX&         i zX&.> w 9.Y.W ",
"3X7X;.q.m.w *XLXw.v V V V Z 6XVX2.c }.F %   =.v.                                  ,.l.  O x !./ W hXcXR N V V m  .SXwXn <.B.' <X",
"    z.M.6   % _.uXeXwXeXwXeXuX[   # F $Xj             e < : t O p $ 8 5 & i .           < XX} *   M 9XeXwXeXeXwXtX:Xw   > 5.W.O ",
"      >.(.7 o 0 - 1 5 & w $ 8 ; + ( -Xx O     % 6 o 7 /.5.&.[.m ;XY C.j.) &Xd o 2 :     X e ].6.% $ q # 0 ; < 6 % w + : n.m.    ",
"      # | $X7 oXP 7.V.j >Xe !... .'.B 1XD . . } @Xg &XI a.m.C :Xp ].| ;.E.h <XM I.u.O . u :X! M.d.B *X8 }.Q ,.H.s ,Xu U.y.*     ",
"      4./.> o 6 > 2 5 ; 9 - 7 =   E :Xn OX) 4.R.F 2Xv   > 4 ; 9 - 7 , 1 3 X 9 $X} d.A.n 1XB '.1.X # 8 - 7 , 1 5 ; 8 O # c.Z.o   ",
"    M.M.<   ; OXjXaXaXaXaXaXzXO.  + V >XI J.s.| #Xd o   y.xXaXaXaXaXaXzXI.o . 8 Q.r.@.XXN =X` $   S sXsXaXaXaXaXfX9Xp   * 3.).% ",
"+ W.>.9.S.r 2XPX1.u g g g k 1XFX8.n @XS [.%.t.P.U $Xr B.PX_.a g g g u x.UX|.6 `.o.s.F.W &XH ^.' / bXlXA d g g a ~ AXaXN 7.Z.~ 9X",
"  d D.v.r # F sX^           %XV.7 & U .X{ % > ,.'.B # y `.P.          7.5Xc @ g P.h.0 o K |.o.: > 4.pX;         s lX[ * 4 6.~.S ",
"{.t e h.j.  $ tXaX]     : Y.LX,.  k /.^ . q.o.# O.!.4   m.GXv.O     2.bXOX  X G.7.1 Z V.X G T.!   H KXXXi     V 1XVXu   -.D.b   ",
"UX-XN 0 e.C.$ J rXu.    ; gXk.< L U.~ $ d.ZXzX,.%  .R.j e U.1X      Y.*Xc 1 I.>., ! qXPXK.> S A.%.$ :.MXz     / vX[ O y.x.l y R.",
";.lX#.  4 <.C.2 '.pX .9 H.GXA ' M.U     9XK.|.{.    _ A.S X.FXx.1 4.nXc.y D.#.*   k.0Xg.bX7   m h.6.0 MX[.l H :XtX> j.r.s   N UX",
"  <X;XJ i h.4.1 R 5XR.h ZXj.7 H g.$.< p.AX/ 8.bX1.: 6.a.x p J.xX7 ,XXXB w w.p.5 ' tXR.h SXZ.q W l.' : 4.BX^ 8.kXO.- $.l.V j Q.UX",
"o %.kXc.0 v.4.-   k.uXB.nX7   H z.&.9 mXR.d V oXtX; q.f.x   N ZXk.vX#.  9 e.j.> '.0X/ 6 v.DXZ R b.`     9X~.%X}.    $.n.n X.NXz.",
"    Y.2XD > V.q.5 L 1XLXn.- E C.} = q.BXl     ^ MX&.@ 3.b.C 7 I.UX.Xz p s.k.# ^ sXu.    - hXC.8 A F.o.$ 8.MXdXO.* :.F.a f ).,X  ",
"    &.hX+X    v.r.9 b h.  ! J.P   H JX^.t     n +XCXy   X.Z.F # N.0 h k.e.  # yX9X~     ; C.HX,.  s P.X.o ,._ * :.H.<   M.CXi.O ",
"      4.0XF $ M F.j.a o ^ /.%.3 5 y.iX&         i zX&.> w 9.R.L o n Z.x.g & ! gXQ           #XL.y - / ).#.= 5 6.Q.L % l XXK.    ",
"V V v V.PX(.5 E.$.a.S.` .XT E./ W hXcXR N V V m  .SXwXn <.B.] {.7 K.1.q.m.w *XLXw.v V V V Z 6XVX2.c {.I /.:.u.G.~ }.e c.GX|.m V ",
"eXwXeXpXZ.    t T.r.%.}.S @X{ *   M 9XeXwXeXeXwXtX:Xw   > 5.!.O     z.M.6   % _.uXeXwXeXwXeXuX[   # F &XE G.d.X.XXz O   7.pXeXwX",
"+ 9 : , 6 o p @X| d.N.l :XZ ).6.% $ q # 9 ; < 6 % w + ; n.M.          >.(.7 o 9 - 1 5 & w $ 8 ; + ( =XN XXQ >.T.J ,XC O < 4 & r ",
"@ #X| ,._.p tXb ^.d.    w qXP V.n.A 8X0 =X) 7.Q.g tXp _.r.              ) 5X9 <XE y.P.z rXt  X$.$.oXh tXA     | 2Xp 6XK h.S.m MX"
};
