/* XPM */
static char *ff07407312754776f5d6f50a964a128847lIfZm1bDP5ywD1[] = {
/* columns rows colors chars-per-pixel */
"64 64 236 2 ",
"   c #2A2927",
".  c #242322",
"X  c #232321",
"o  c #21201F",
"O  c #201F1E",
"+  c #232221",
"@  c #2C2B29",
"#  c #272624",
"$  c #262524",
"%  c #282725",
"&  c #1E1E1D",
"*  c #161615",
"=  c #10100F",
"-  c #0F0F0E",
";  c #141313",
":  c #222120",
">  c #1F1E1D",
",  c #1D1C1B",
"<  c #373634",
"1  c #252423",
"2  c #292827",
"3  c #3A3938",
"4  c #131212",
"5  c #121110",
"6  c #151414",
"7  c #191817",
"8  c #1C1B1A",
"9  c #333230",
"0  c #282726",
"q  c #292826",
"w  c #353432",
"e  c #434240",
"r  c #3D3C3A",
"t  c #2F2D2C",
"y  c #31302E",
"u  c #2E2D2C",
"i  c #2E2D2B",
"p  c #2D2C2B",
"a  c #403F3D",
"s  c #1F1F1D",
"d  c #191818",
"f  c #171716",
"g  c #141413",
"h  c #141312",
"j  c #131211",
"k  c #1E1D1C",
"l  c #242321",
"z  c #252523",
"x  c #4A4946",
"c  c #161514",
"v  c #181817",
"b  c #1D1D1C",
"n  c #1D1D1B",
"m  c #363533",
"M  c #272625",
"N  c #121211",
"B  c #161515",
"V  c #1B1B1A",
"C  c #2D2C2A",
"Z  c #2C2B2A",
"A  c #343231",
"S  c #42413F",
"D  c #1B1A19",
"F  c #1A1919",
"G  c #151413",
"H  c #111110",
"J  c #20201E",
"K  c #2B2A28",
"L  c #403E3C",
"P  c #0F0E0E",
"I  c #1A1918",
"U  c #181716",
"Y  c #2C2A29",
"T  c #32312F",
"R  c #2A2928",
"E  c #131312",
"W  c #0E0E0D",
"Q  c #22211F",
"!  c #32302F",
"~  c #111010",
"^  c #1A1A19",
"/  c #191918",
"(  c #151514",
")  c #1E1E1C",
"_  c #0E0D0D",
"`  c #0D0D0C",
"'  c #0D0C0C",
"]  c #2B2928",
"[  c #393836",
"{  c #333130",
"}  c #3B3937",
"|  c #373534",
" . c #171615",
".. c #1C1C1B",
"X. c #343331",
"o. c #100F0F",
"O. c #383735",
"+. c #3B3A38",
"@. c #363433",
"#. c #312F2E",
"$. c #383634",
"%. c #3A3937",
"&. c #353332",
"*. c #454442",
"=. c #2B2A29",
"-. c #171616",
";. c #262624",
":. c #393837",
">. c #121111",
",. c #41403E",
"<. c #343332",
"1. c #3C3B39",
"2. c #3D3B39",
"3. c #2D2B2A",
"4. c #3F3E3C",
"5. c #232220",
"6. c #302E2D",
"7. c #302F2E",
"8. c #444240",
"9. c #2F2E2C",
"0. c #21211F",
"q. c #3E3D3B",
"w. c #373533",
"e. c #484745",
"r. c #252422",
"t. c #222220",
"y. c #181717",
"u. c #31302F",
"i. c #302F2D",
"p. c #3B3938",
"a. c #2F2E2D",
"s. c #2E2C2B",
"d. c #383736",
"f. c #292726",
"g. c #1F1F1E",
"h. c #262523",
"j. c #20201F",
"k. c #383635",
"l. c #393736",
"z. c #413F3D",
"x. c #21201E",
"c. c #52504E",
"v. c #3F3D3B",
"b. c #484644",
"n. c #43413F",
"m. c #4D4B49",
"M. c #3C3A38",
"N. c #42403E",
"B. c #444341",
"V. c #474543",
"C. c #464442",
"Z. c #454341",
"A. c #51504D",
"S. c #464542",
"D. c #393735",
"F. c #444340",
"G. c #43423F",
"H. c #494745",
"J. c #42413E",
"K. c #3C3A39",
"L. c #3A3836",
"P. c #2A2827",
"I. c #4F4D4B",
"U. c #5D5B58",
"Y. c #4A4846",
"T. c #1C1B1B",
"R. c #3E3C3A",
"E. c #474644",
"W. c #585654",
"Q. c #545250",
"!. c #474643",
"~. c #575653",
"^. c #5A5856",
"/. c #504E4C",
"(. c #3A3837",
"). c #4B4A47",
"_. c #494845",
"`. c #504E4B",
"'. c #3F3E3B",
"]. c #363432",
"[. c #4E4C4A",
"{. c #4C4B48",
"}. c #555350",
"|. c #454441",
" X c #514F4D",
".X c #4D4C49",
"XX c #53514F",
"oX c #52504D",
"OX c #514F4C",
"+X c #575553",
"@X c #504F4C",
"#X c #62615E",
"$X c #4E4D4A",
"%X c #4B4947",
"&X c #333231",
"*X c #595755",
"=X c #5B5956",
"-X c #54524F",
";X c #484744",
":X c #464543",
">X c #62605D",
",X c #53524F",
"<X c #4C4A48",
"1X c #565552",
"2X c #52514E",
"3X c #4B4A48",
"4X c #565451",
"5X c #565452",
"6X c #555351",
"7X c #555451",
"8X c #4F4D4A",
"9X c #5B5957",
"0X c #595754",
"qX c #5A5855",
"wX c #5A5956",
"eX c #11100F",
"rX c #282625",
"tX c #615F5C",
"yX c #323130",
"uX c #545350",
"iX c #0E0E0E",
"pX c #353331",
"aX c #5F5D5A",
"sX c #6E6C69",
"dX c #353433",
"fX c #41403D",
"gX c #63625F",
"hX c #3D3B3A",
"jX c #615F5D",
"kX c #242422",
"lX c #282826",
"zX c #4E4D4B",
"xX c #4F4E4B",
"cX c #100F0E",
"vX c #272524",
"bX c white",
/* pixels */
"  . X o O + @ # . $ % & * = - ; O : > , > < . : . 1 @ 2 1 o @ 3 4 5 6 7 8 9 $ 1 0 q w e r t y u i p q 2 a 1 s , d f g h j j 4 f ",
"1 + : k > l 0 z . @ x 9 O c - = v O o 8 b > n m $ o M M p 9 s O N 4 B 7 V k o 0 p C Z y A < S i C Z   1 O D F f G g h H = = - k ",
"J O J o O : $ K L @ y C @ $ G P = 7 O 8 I I 8 : & > o o l . k V j g B U I k + Z C Y i T T T T R R z > U g E j H H = - - - - P W ",
"Q O J 1 + q q R w T ! ! u t 0 8 ~ N ^ / ( f I ^ D 8 ) , > k b I 4 g * f I O : 2 M u @ T     T M 8 H - - P W _ ` ` _ ` ` ' ' ` ' ",
"l O o @ ] T w [ { m } | { y Z Z @ ^ f 7 G (  .v v 7 I I 8 k , 7 j g  .f I ..O 0 X.1   p   q + g P o.o.- P W _ ` ` W ` ` ' ' ` ` ",
"o O : $ 2 @ T O.+.O.< @.9 A < 9 #.  z .. .N ;  . .f v 7 d D v  .E g B U 7 V O 1 i . w   1 ..G g c d D v ( g E N N H o.o.o.o.- W ",
"O O o : $ t u y | [ $.%.O.&.*.a i K =.2 # f N 6 c -.f  . .7 v -.c ; c B 7 , > > > ;.:.o D I , O Q + + O k k ..I  .c 6 j >.H = > ",
"o : : 1 M ,.<.y w } 1.2.%.w &.&.< y ! 3.4.2 v h h G c B c  .U ( 4 h G * I D , k , I g E ( * ^ O o 5.+ + 1 l + : , D f * G g g I ",
"> : + 1 M C 6.7.@.X.O.O.9 m 8.a X.w 9.q X + O F ( E ; G g G c B E g g f I v / U g E ; g  .U D k > s : s J 0.o s ..D U f U v  .g ",
"> o O + $ q.w y y w 1.a m w.8.e.! T 9 =.[ q o O 8 -.* E ; h g D V h G * f U ( E g c U v D , k r.+ o o t.r.2 : , D I y. .* B c f ",
"k O O O . { u.i.X.< r p.X.T 2.1.y y y p a.# : O D d U ( * U j 6 ( E c  .g G G c U v 7 V k o O m u > . M 7.S + & , D 7 -.U  .* U ",
"k ) > J # @ s.T w i.m X.9.C i.9 #.w X.y M 5.o > 8 D 7 -.V k H 5 H N O / ; g c f 7 / D , s < i.M 2 $ =.R C 2 $ d.o k D / F I y.-.",
"D D 8 k +   f.R C 9.w X.Z K 2 Z C i =.q r.O , D / 7 -.c 6 4 >.~ H >.g 6 g ( f v D 8 O : + R C R K % C K K q 2 2 . . + , D I 7 v ",
"7 I ^ D k . . r.q R   =.Z 3.q @ =.p 0 l + g.8 D v f ( 6 c h >.H H N E ( c U 7 I 8 k : 1 2 =.u 3.Z 2 Z i @.9 9.i K R   : k 8 D D ",
"v I D ^ I 8 > 1 %.h.Z i Z C 0 =.M O.9 o k 8 ^ I v  .( G , ..j N N j j.I U F 8 k O 5.r.R X.w < { w 7.9.T k.< T l.9 a.@ # o O > > ",
"7 f v v U ^ , > Q   e.6.R r.: < 9 + + o , D I 7  . .c * 7  .g * 6 g D f  .I 8 ) + 1 @ ! T w m w ,.r w %.a z.[ O.X.m T 1 : : 0.O ",
"v -.U U U F V , O M i.% $ . . q 0 x.O , D I U * ( 7 ^ I v  .c j.D * c c ( I D O l . 9 1.T O.m p.c.*.+.v.b.n.%.m < 4.L 0 1 l + : ",
" .I ^ / v I k s + . $ . . 1 + . : k D I -.-.* U 8 , 8 , I  . .* 7 v -.f -. . .I O h.0 2 y m 2.2.m.x M.1.N.a 1.1.O.w.y K 0 # 1 : ",
"d f * f v ^ > : M 2   @ f.q M $ r.k I y.c U > : . : O b I v  .* I 8 D / I / v -.U > k.B.w +.%.S r 4.q.B.V.C.8.2.%.S Z.@ R M # 1 ",
", 4 h ; B v / D O + . h.M     q $ : k J R a K $ # $ + , D I U ^ 8 ) k D 8 8 8 ^ d * o { T X.X.%.A.m.4.Z.S.8.Z.L l.D.m @ 0 M 1 $ ",
"~ >.j N N 4 G *  .v / 8 O + > V I D . i < a C < C q : > , D y.v , > : > s k , , 8 v  .> 1 y w 1.N.F.L 4.G.F.C.H.J.K.X.y @ 2 h.% ",
"- - P - o.o.~ o.= H >.j h ; h j 8 Z m w %.9 T 8.7.  . Q k ../ v : z # l : Q O O s , D 8 o , # L.O.[ q.z.*.x n.,.V.n.1.&.9 % M R ",
"- - P - o.o.~ o.= H 5 N E h f 1 < z.< [ z.+.1.w @.s.K : > b I I . % 2   M P.1 1 + : k , + O B f q | 2.1.L z.,.z.w m { C s.0 q   ",
"H N 4 4 4 E (  . .7 I D o 2 9 %.1.e n.Z.8.L 1.L +.9.2 + J k D D M 2 T #.a.C K =.@ $ + + %   k ; h O m O.p.q.M.I.9 ! K   R 2 2 P.",
"k h g 6 -.I D 8 o . 1 s.w } 4.L F.U.V.Y.S v.z.,.< 9.  # 5.k / T.9.C H.K.M.$.9.R.e 2 K 0 M 9.q , ; g O i E.W.&.#.y A C M q Z p a.",
"8 7 U 7 D , o . R s.+.Q.} v.8.8.C.e.!.~.^.V.R.2.< M.L 0 . k v O /.w X.(.L z.< < y [ ,.K 2 C i q y.E B > =.w { y X.| C R p 9.y O.",
"/ , , 8 8 , o 1 t ! +.!.q.C.).!._.b.V.`.Q.Y.N.l.| < m P.. > 8 $ 2.1.} B.'.B.r < ].&.9.  2 t p 2 k h 4 y.o K t i.[ 2.@.9 @.w O.+.",
"D I ^ ^ ^ ) C L.m T k.e S [.{.Y.}.m.Z.C.8.4.D.@.O.w.<   + ) O M w.q.8.Z.N.a a +.w 9 6.R @ ] 6.C o * N h D : 2 $ =.2.n.L r +.r H.",
"8 ^ D 8 + < |.4.%.m 4. XZ.)..XI.XX.XA.x L +.m X.X.O.a C q 1 # 1 1.} |.Y.x c.Y.1.w O.%.9 y 2 t i.$ 8 E H 6 8 O r.J o K %.r 2.r }.",
"8 , O R r N.%.9 $.< k.1.[.oXOXc./.m.+X@X8.2.+.+.A K i Z @ i.. o K.4.Y./.U.#X$X4.%.R.O.+.r m s.i.3.g.c H N U ..O > ..D O   3.9.X.",
"k 5.q O.'.R.w i i.{ +.*.oX{.H..Xm.H.oX{.%Xz.k.%.&Xi C C 9 9.) O H.V.*X).=X-X%Xe z.L [ O.m.a i i i Q ^ h j ; v , k k 8 8 k o . 0 ",
"#   w a q.%.X.@ @ ! M.Y.C.n.B.H.V.;Xb.8.:Xp.(.R.m i.y 9 @.R / ..q.H.>X,X[.).<X/._.[.4.m y p 2 0 R + , * >.>.6 v / k > D 8 b , o ",
"2 &.I._.'.O.X.u.i.| +.L 1.$X/.n.b.F.<XN.4.| M.-XO.C T 9 A $  .k ,.b.OXOXQ. X1XU.2Xe.e O.N.l.h.. $ 1 k 7 E >.4 -.U D > , k , b + ",
"k u @X%Xv.%.X.T #.w q.O.k.B.:X3X$XB.e R.D.a @.Z.< 9 O.7.K 8 * o N.m.`.c.U.=X4X5X6XH.8.M.w a.% . : o > I c N H ; f 7 ..D 8   k.i ",
"8 , o i.p.M.X.#.7.i.X.{ &.O.O.H.3X,.+.O.9 8.p 6.T m X.q >  .U @ S.<XQ.5X7XU.W.8X8Xm..XR.w @ # + O O > / 7 ; ~ N g s + k i.A.`.i.",
"8 8 D I + C 6.T w 9.T T X.m w.X.O.+.2.9 p K 0 @ X.< i o f B ..u.F.x }.9X+X0X0X7X<XH.H.L +.y $ : O O o D v B N H j / % < q.C.|.| ",
"F I , ^ % b , K T y 9.i.X.9 i.a.9 A 9 =.0 M M =.T i . ^ ( f o m ,X<X X^.qXwXc. X%X.Xm.B.M.{ $ + o > : > ^ v h N V q T } %.1.r 2.",
"/ V b I  .G >.; k Y 9.#.i.#.9.9.i R 0 $ . 1 $ Z   + , ( G 8 0 O.#XI..X,X0XU.$X8X{./.4X2.$.i M $ + k s > : 2 I : u 6.i.T T @.D.r ",
"/ D ^ c c j eX>.G O h.Z 3.s.s.C P.M rXr.: t.. # . O U ; * o i %.z.L tX@X~.wX{.1XU.z.1.w ! p M r.+ J O ..b . 3.u i.9.3.9.t y m R.",
"7 I U c h = o.4 c 0 k > ] 9.=.q $ h.$ + o + . : O / B c D l y %.4.2.8.8.Y.0X%X:Xn.r } X.y 9.0 . : o : + % p C C Y @ Z =.0 f.u O.",
"D / U h ~ o.~ 6  .D , , o 1 M # . . + O t.1 O 8 ^ c G f > 1 a.w S S a N.S.{._.z.%.1.L.X.! 9.R $ + + 2 Z   i p i u 6.u.C $ 0 R < ",
"> D * >.o.o.N *  .n O , o O + r.. : + o l : V 8  .g c I o % C yX8XV.n.+.%.q.!.,.[ < [ w #.i @ M . M     =.u 6.s.C &.X.C 2 @ y T ",
"k 7 g = P = g B I > k 8 O o 5.$ 0 # 5.O J & D / g ; f 8 : z $ y uXb.%.< < '.L 1.L.].m T 9.! % + + r.% =.=.i y i.i 9 %.< i.@ C p ",
") f >.- o.N U I ..8 8 > : : + % =.i K Q o u / * h 6 D , o h.+ u /.;Xv.$.[ %.O.O.m w &.#.0 . : o o 5.$ 2 0 C i.y w X.+.r u a.=.% ",
"8 G P _ ~ * ^ , 8 V 8 O : + $ R C C s.u q +  .g g U 8 , . h.5.R I.@XV.N.v.2.[ M.%.].i . k > o O : : . 2 R C ! ].[.O.D.B.@.z.[ =.",
"y.>.W P g d & O , k k O + h.2 K C i.y T 9 i.5.U ( / b : M 1 + @ Y.@X%XC.N.a %.[ y o 8 C O 0.> k : : +   y &.{.[ %.w.L.N.[ m u 4.",
"g - iX>.v O l > , > o . Z C i @ i ! X.! T pX< y + + a.+ h.: . K L @X@Xm.<XS.O.  7 ;  ./ ..o o k > O . 9.! O.K.%.< O.+.4.+.+.i.6.",
"~ P o.B > 1 + s ) o + P.T A { 9.9 w X.9 X.9 [ < $.< @ o + 1 1 2 m .XaX5Xm.2.  / g 4 G U v , O k , > + i a.X.m w.< M.r } l.%.{ =.",
"- - g D : + : Q o <.0 C i.L.8.z.9 w A 9 m X.w m r V.H.2.@ . . % X.E.sXXX7.o p , B 4 >.c 7 I > b k g.: h.s.T 1.O.m < M.1.m w T @ ",
"W N V > + o 1 dX# i =.u.< l.N.fXe S m [ v.< A | +.8.%X=XgXhX# 0 X.2.4.2 o o O ^ 7 E 5 4 * ^ k > > > t.R K 6.yX< R.%.l.R.%.#.9.Z ",
"- v O O > , 1 +.  # 9.T v.< M.} H.b.[ 4.%.< y X.%.N.Y.5X=Xz.&.a.#.2 5.. : + + 8 I c N >.; 7 k + o > O m i i ! w r q.w w 9 y t % ",
"= I O O & > + q %   9 A %.(.+.q.r 1.n.E.(.y p u %.fXH.x R.9 i.i i.M . X O O l O I U E H >. .8 : 1 : : $ $ 0 T 9 9 X.i.9.a.%.(.2 ",
"h , k 8 8 , : # # 9.| %.N.L.q.z.z.S.<XL [ ! y 7.+.C.Y.a a.2 . 0 X.7.@ $ : > O o > 8 B N H E I : q 1 M r m q R K R @ y [ m i.y 3.",
" .8 I 8 8 V o $ 2   #.1.n.r z.Z.S.Y.8.| w X.O.w v.;Xn.a.1 + : 2 n.r O.&.i o k > o > ^ G = = B > 0 # 1 @ C 2 0 % h.@ O.z.m 9.  h.",
"* c U D =.$ J : r.% i < r r 8.a G.n.L $X} 9 D.N.V.< . O s > : Z jX+XH.C.*.+.K J + + , 7 5 o.N ^ + M : O 1 $ 2 . +   i.y   =.# 1 ",
"N N ( 7 o o 5.: $ 3.i.9 A q.B.r S :X1.2.! i.m %.Z O k k k k k M I.[.Z.n.B.e e +.0 M 1 k B ~ = ( k 1 + J J k : t.: M # % % M 0 + ",
"= j B 7 + + : l R w q.%.w.O.(.[ L 1.< ,.m y C 1 o > & O o o 8 . ,.,.r +.} w %.a @.u =.. D E = >.8 : + o n k + + o 5.% M . 1 o kX",
"- >.( f lX$ : M % a.a L w < m m < A A zX9 R % X o k , D D 8 o 1 +.2.w X.9.C i.@.T t i.i.+ v H = -.: + & , O u.o o o + M + O V M ",
"o.N g  .v V o P.0 2 p T X.b.X.y ! T C % O J k D ^ I U  .f B j.t.u.w u.i.q   9.y i.p [ xXX.1 -.o.H 7 o O F , 8 ..i.> , : O 0 X 7 ",
"= 5 j G v V + # z 2 C 9.9.y p p # o ^  .c c G g g E h h ; E j y.@ s.C 3.@ =.i i.l._.T w #.y M 6 - ~ 7 k F f f I D / / D D 8 / f ",
"- H >.g 7 I O o $ $ Y $ $ y 0 D H o.o.cX- - P P = - o.o.o.= = B =.6.=.@ ! a.].T X.1.L.< &.T 9.2 V H 5 7 * 4 6 *  .B U /  .v f  .",
"- ~ >.E 6 v , p O o $ 1 1 > g W o.= = o.- - P P o.- o.o.o.= = G 0 i 2 @ X.&.1.,.S p.v.r %.A y =.] q y.( ( >.>.j E E E g h 6 ( ( ",
"P o.H N G y.I : 8 p 1 > v ; h c v 8 I -.c ( g g h j 4 4 E j N * M q q K C i.9 < v.,.M.O.m { T m 9.  . > 7 4 - eX>.>.H N >.j 4 H ",
"W cX= 5 6 f U U V i , * B / , > o o > k n , D y.U f ( g g h J & h.vXM % % s.u.{ &.M.%.[ %.X.! N.X.M + 0.o 8 5 - o.eX~ ~ = = H H "
};
