/* XPM */
static char *_2638aa69b5c43a08e4449f70a5486faSFcRSaVQLU10iPaw[] = {
/* columns rows colors chars-per-pixel */
"64 64 4 1 ",
"  c None",
". c black",
"X c #BCBCBC",
"o c white",
/* pixels */
"                                                                ",
"                              ........                          ",
"                           ...oooooooo...                       ",
"                         ..oooooooooooooo..                     ",
"                       ..oooooooooooooooooo..                   ",
"                      .oooooooooooooooooooooo.                  ",
"                     .oooooooooooooooooooooooo.                 ",
"                    .oooooooooooooooooooooooooo.                ",
"                    .oooooooooooooooooooooooooo.                ",
"                   .oooooooooooooooooooooooooooo.               ",
"                  .oooooooooooooooooooooooooooooo.              ",
"                  .oooooooooooooooooooooooooooooo.              ",
"                  .oooooooooooooooooooooooooooooo.              ",
"           ...   .oooooooooooooooooooooooooooooooo.             ",
"           ...   .ooooooooooooooooo...ooooooo...oo.             ",
"           ...   .oooooooooooooooooo.ooooooooo.ooo.             ",
"             ..  .oooooooooooooooooooooooooooooooo.             ",
"             ..  .oooooooooooooooooooooooooooooooo.             ",
"              .. .oooooooooooooooooooooooooooooooo.             ",
"              ....oooooooooooooooooooooooooooooooo.             ",
"               ....oooooooooooooooooooooooooooooo.              ",
"               ....oooooooooooooooooooooooooooooo.              ",
"                ...oooooooooooooooooooooooooooooo.              ",
"                ....oooooooooooooooooooooooooooo.               ",
"                 ....oooooooooooooooooooooooooo.                ",
"                .....oooooooooooooooooooooooooo.                ",
"               ....XX.oooooooooooooooooooooooo.                 ",
"                .XXXX..oooooooooooooooooooooo.                  ",
"                .XX......oooooooooooooooooo...                  ",
"                 .X........oooooooooooooo..X...                 ",
"                  ........X...oooooooo...XXo.X.                 ",
"                  ........oXXX........XXXooo.X.                 ",
"                   ........oooXXXXXXXXoooooo.X.                 ",
"                   .........oooooooooooooooo.X.                 ",
"                   .oo.......ooooooooooooooo.X.                 ",
"                   .oo.........ooooooooooooo.X.                 ",
"                   .oo.oo.......oooooooooooo..                  ",
"                   .oo.ooo.......ooooooooooo..                  ",
"                   .oo.oooo.......oooooooooo..                  ",
"                   .o.ooooo.........oooooooo..                  ",
"                  .oo.oooooo.........ooooooo..                  ",
"                  .oo.oooooo.X.........ooooo..                  ",
"                  .oo.oooooo.Xoo........oooo..                  ",
"                  .oo.oooooo.Xooo........ooo.                   ",
"                  .o.ooooooo.Xoooo.........o.                   ",
"                  .o.ooooooo.Xooooo..........                   ",
"                  .o.ooooooo.Xoooooo.........                   ",
"                  .o.ooooooo.Xooooooo........                   ",
"                  .o.ooooooo.Xooooooooo......                   ",
"                  .o.oooooo.Xooooooooooo.....                   ",
"                  .o.oooooo.Xooooooooooooo...                   ",
"                  .o.oooooo.Xooooooooooooooo.                   ",
"                 .o.ooooooo.Xooooooooooooooo.                   ",
"                 .o.ooooooo.Xooooooooooooooo.                   ",
"                 .o.ooooooo.Xooooooooooooooo..                  ",
"                 .o..oooooo.Xooooooooooooooo..                  ",
"                 .oXX....oo.Xooooooooooooooo..                  ",
"                 .oooXXXX...Xoooooooooooo.....                  ",
"                 .oooooooXXXoooooooooo....XXX.                  ",
"                  .oooooooooooo...........X..                   ",
"                   ........................                     ",
"                          ....        ....                      ",
"                          ...          ...                      ",
"                          ...          ...                      "
};
