/* XPM */
static char *_1aeb8937bde4bd9867bbf2db49105e5SSXcxfCIkiyLUiZc[] = {
/* columns rows colors chars-per-pixel */
"41 64 230 2 ",
"   c None",
".  c black",
"X  c #010101",
"o  c #020202",
"O  c gray1",
"+  c #040404",
"@  c gray2",
"#  c #060606",
"$  c #070707",
"%  c gray3",
"&  c #090909",
"*  c gray4",
"=  c #0B0B0B",
"-  c #0C0C0C",
";  c gray5",
":  c #0E0E0E",
">  c gray6",
",  c #101010",
"<  c #111111",
"1  c gray7",
"2  c #131313",
"3  c gray8",
"4  c #151515",
"5  c #161616",
"6  c gray9",
"7  c #181818",
"8  c #191919",
"9  c gray10",
"0  c #1B1B1B",
"q  c gray11",
"w  c #1D1D1D",
"e  c #1E1E1E",
"r  c gray12",
"t  c #202020",
"y  c gray13",
"u  c #222222",
"i  c #232323",
"p  c gray14",
"a  c #252525",
"s  c gray15",
"d  c #272727",
"f  c #282828",
"g  c gray16",
"h  c gray17",
"j  c #2C2C2C",
"k  c #2D2D2D",
"l  c gray18",
"z  c #2F2F2F",
"x  c gray19",
"c  c #313131",
"v  c #323232",
"b  c gray20",
"n  c #343434",
"m  c #353535",
"M  c gray21",
"N  c #373737",
"B  c gray22",
"V  c #393939",
"C  c #3A3A3A",
"Z  c gray23",
"A  c #3C3C3C",
"S  c gray24",
"D  c #3E3E3E",
"F  c #3F3F3F",
"G  c gray25",
"H  c #414141",
"J  c gray26",
"K  c #434343",
"L  c #444444",
"P  c gray27",
"I  c #464646",
"U  c gray28",
"Y  c #484848",
"T  c #494949",
"R  c gray29",
"E  c #4B4B4B",
"W  c #4C4C4C",
"Q  c gray30",
"!  c #4E4E4E",
"~  c gray31",
"^  c #505050",
"/  c #515151",
"(  c gray32",
")  c #535353",
"_  c gray33",
"`  c #555555",
"'  c #565656",
"]  c gray34",
"[  c gray35",
"{  c #5A5A5A",
"}  c #5B5B5B",
"|  c gray36",
" . c #5D5D5D",
".. c gray37",
"X. c #606060",
"o. c gray38",
"O. c #626262",
"+. c gray39",
"@. c gray40",
"#. c #6A6A6A",
"$. c gray42",
"%. c #6C6C6C",
"&. c #6D6D6D",
"*. c gray43",
"=. c #6F6F6F",
"-. c gray44",
";. c #717171",
":. c gray45",
">. c #747474",
",. c gray47",
"<. c #797979",
"1. c gray48",
"2. c #7B7B7B",
"3. c #7C7C7C",
"4. c gray49",
"5. c #7E7E7E",
"6. c gray50",
"7. c #808080",
"8. c #818181",
"9. c gray51",
"0. c #838383",
"q. c #848484",
"w. c gray52",
"e. c #868686",
"r. c gray53",
"t. c #888888",
"y. c #898989",
"u. c gray54",
"i. c #8B8B8B",
"p. c gray55",
"a. c #8D8D8D",
"s. c #8E8E8E",
"d. c gray56",
"f. c #909090",
"g. c gray57",
"h. c gray58",
"j. c #959595",
"k. c gray59",
"l. c #979797",
"z. c #989898",
"x. c #9B9B9B",
"c. c gray61",
"v. c #9D9D9D",
"b. c gray62",
"n. c gray63",
"m. c #A2A2A2",
"M. c #A4A4A4",
"N. c #A5A5A5",
"B. c gray65",
"V. c gray66",
"C. c #AAAAAA",
"Z. c gray67",
"A. c #ACACAC",
"S. c gray68",
"D. c #AEAEAE",
"F. c #AFAFAF",
"G. c gray69",
"H. c #B1B1B1",
"J. c #B2B2B2",
"K. c gray70",
"L. c #B4B4B4",
"P. c gray71",
"I. c #B6B6B6",
"U. c gray72",
"Y. c #B9B9B9",
"T. c gray73",
"R. c #BBBBBB",
"E. c gray74",
"W. c gray",
"Q. c gray75",
"!. c #C0C0C0",
"~. c gray76",
"^. c #C3C3C3",
"/. c gray77",
"(. c #C5C5C5",
"). c #C6C6C6",
"_. c gray78",
"`. c #C8C8C8",
"'. c gray79",
"]. c #CACACA",
"[. c #CBCBCB",
"{. c gray80",
"}. c #CECECE",
"|. c gray81",
" X c gray82",
".X c #D2D2D2",
"XX c LightGray",
"oX c gray83",
"OX c #D5D5D5",
"+X c gray84",
"@X c #D7D7D7",
"#X c #D8D8D8",
"$X c gray85",
"%X c #DADADA",
"&X c gray86",
"*X c gainsboro",
"=X c #DDDDDD",
"-X c gray87",
";X c #DFDFDF",
":X c gray88",
">X c #E1E1E1",
",X c #E2E2E2",
"<X c #E4E4E4",
"1X c gray90",
"2X c #E6E6E6",
"3X c #E7E7E7",
"4X c gray91",
"5X c #E9E9E9",
"6X c #EAEAEA",
"7X c gray92",
"8X c #ECECEC",
"9X c gray93",
"0X c #EEEEEE",
"qX c #EFEFEF",
"wX c gray94",
"eX c #F1F1F1",
"rX c gray95",
"tX c #F3F3F3",
"yX c #F4F4F4",
"uX c gray96",
"iX c #F6F6F6",
"pX c gray97",
"aX c #F8F8F8",
"sX c #F9F9F9",
"dX c gray98",
"fX c #FBFBFB",
"gX c gray99",
"hX c #FDFDFD",
"jX c #FEFEFE",
"kX c white",
/* pixels */
"                                J %.~.aXjXjX1XQ.y.S O                             ",
"                              u J ;.Q.aXjXjX1X~.y.V O                             ",
"                              e V %.Q.aXjXjX1X~.e.n O O                           ",
"                              u U ;.~.aXjXjX1X~.e.n O O O                         ",
"                              c [ e.].aXjXjX9X{.g.W e & O                         ",
"                            e U 2.N.+XjXjXjXeX#XC.$.V 7 +                         ",
"                            c ..c.].5XjXjXjXaX1X(.d...h + O                       ",
"                          u J 2.(.eXaXjXjXjXjXaX,XR.e.S + O                       ",
"                          c ' d.#XjXjXjXjXjXjXjXeX Xn.' 7 +                       ",
"                        e U ;.N.,XjXjXjXjXjXjXjXeX-XG.%.c 4 +                     ",
"                      2 h [ g.Q.5XjXjXjXjXjXjXjXaX1X~.y.' h & O                   ",
"                    & e S 2.R.,XiXjXjXjXjXjXjXjXaXiX-XS.5.U : O O                 ",
"                  O & h ) z.,XjXjXjXjXjXjXjXjXjXjXjXeX XN...4 O O O               ",
"              O O O 4 V $.S.9XjXjXjXjXjXjXjXjXjXjXjXaX,XR.;.j & O O O             ",
"            O O O : h ) y.Q.9XjXjXjXjXjXjXjXjXjXjXjXaX5X(.y.W p & O O O           ",
"          O O O 2 h W 5.G.#XiXjXjXjXjXjXjXjXjXjXjXjXaXeX#XS.2.W u & O O O         ",
"      O O O O : h ) 5.L.-XiXjXjXjXjXjXjXjXjXjXjXjXjXjXjX9X+XG.7.W p : O O O       ",
"      O O O 2 p W 5.S.#XaXjXjXjXjXjXjXjXjXjXjXjXjXjXjXjXjXeX-XG.2.Y u & O O O     ",
"    O O + : p ) 5.L.#XiXjXjXjXjXjXjXjXjXjXjXjXjXjXjXjXjXjXjXeX+XS.7.Y p & O O     ",
"  O O O : p W 5.S.-XjXjXjXjXjXjXjXjXjXjXjXjXjXjXjXjXjXjXjXjXjXeX-XL.2.U u & O O   ",
"O O O 2 h W 5.G.#XiXjXjXjXjXjXjXjXjXjXjXjXjXjXjXjXjXjXjXjXjXjXjXeX#XS.5.Y p : O O ",
"O + 2 p W 7.G.,XaXjXjXjXjXjXjXjXjXjXjXjXjXjXjXjXjXjXjXjXjXjXjXjXjX9X#XL.5.Y p 2 O ",
"e p n W 5.G.#XaXjXjXjXjXjXjXjXjXjXjXjXjXjXjXjXjXjXjXjXjXjXjXjXjXjXjXeX#XC.2.) c 7 ",
"W ' @.7.S.-XiXjXjXjXjXjXjXjXjXjXjXjXjXjXjXjXjXjXjXjXjXjXjXjXjXjXjXjXjXeX+XL.y.O.W ",
"y.d.c.G.+XaXjXjXjXjXjXjXjXjXjXjXjXjXjXjXjXjXjXjXjXjXjXjXjXjXjXjXjXjXjXjXeX-XR.k.e.",
" X X#X,XeXjXjXjXjXjXjXjXjXjXjXjXjXjXjXjXjXjXjXjXjXjXjXjXjXjXjXjXjXjXjXjXaXeX,X+X{.",
"jXjXjXjXjXjXjXjXjXjXjXjXjXjXjXjXjXjXjXjXjXjXjXjXjXjXjXjXjXjXjXjXjXjXjXjXjXjXjXjXjX",
"jXjXjXjXjXjXjXjXjXjXjXjXjXjXjXjXjXjXjXjXjXjXjXjXjXjXjXjXjXjXjXjXjXjXjXjXjXjXjXjXjX",
"jXjXjXjXjXjXjXjXjXjXjXjXjXjXjXjXjXjXjXjXjXjXjXjXjXjXjXjXjXjXjXjXjXjXjXjXjXjXjXjXjX",
"jXjXjXjXjXjXjXjXjXjXjXjXjXjXjXjXjXjXjXjXjXjXjXjXjXjXjXjXjXjXjXjXjXjXjXjXjXjXjXjXjX",
"jXjXjXjXjXjXjXjXjXjXjXjXjXjXjXjXjXjXjXjXjXjXjXjXjXjXjXjXjXjXjXjXjXjXjXjXjXjXjXjXjX",
"jXjXjXjXjXjXjXjXjXjXjXjXjXjXjXjXjXjXjXjXjXjXjXjXjXjXjXjXjXjXjXjXjXjXjXjXjXjXjXjXjX",
"jXjXjXjXjXjXjXjXjXjXjXjXjXjXjXjXjXjXjXjXjXjXjXjXjXjXjXjXjXjXjXjXjXjXjXjXjXjXjXjXjX",
"eXeXeXiXaXjXjXjXjXjXjXjXjXjXjXjXjXjXjXjXjXjXjXjXjXjXjXjXjXjXjXjXjXjXjXjXjXaXaXeXeX",
"(.]. X-X9XjXjXjXjXjXjXjXjXjXjXjXjXjXjXjXjXjXjXjXjXjXjXjXjXjXjXjXjXjXjXjXaX9X,X{.(.",
"g.z.N.L.+XeXjXjXjXjXjXjXjXjXjXjXjXjXjXjXjXjXjXjXjXjXjXjXjXjXjXjXjXjXjXaX9X#XQ.c.g.",
"W ' O.5.C.#XeXjXjXjXjXjXjXjXjXjXjXjXjXjXjXjXjXjXjXjXjXjXjXjXjXjXjXjXjX9X XS.7...Y ",
"2 4 p U 5.G.#XeXjXjXjXjXjXjXjXjXjXjXjXjXjXjXjXjXjXjXjXjXjXjXjXjXjXaX9X#XS.2.Y u & ",
"O O & u W 7.G.#XeXjXjXjXjXjXjXjXjXjXjXjXjXjXjXjXjXjXjXjXjXjXjXjXjX5X XS.2.Y u + O ",
"O O O : p U 2.G.#XeXjXjXjXjXjXjXjXjXjXjXjXjXjXjXjXjXjXjXjXjXjXjXeX+XC.2.U e & O O ",
"O O O O & u Y 7.G.#XiXjXjXjXjXjXjXjXjXjXjXjXjXjXjXjXjXjXjXjXaX9X+XS.5.Y u + O O O ",
"O O O O O & h W 2.G.#XeXjXjXjXjXjXjXjXjXjXjXjXjXjXjXjXjXjXjX9X+XC.5.U u + O O O O ",
"O O O O O O & u Y 7.G.#XiXjXjXjXjXjXjXjXjXjXjXjXjXjXjXjXaX9X+XS.5.Y e O O O O O   ",
"  O O O O O O : p W 5.S.+XeXaXjXjXjXjXjXjXjXjXjXjXjXjXaX9X XS.5.U u & O O O O     ",
"    O O O O O O & u U 5.L.-XiXjXjXjXjXjXjXjXjXjXjXjXjXeX#XS.5.Y e O O O O O       ",
"    O O O O O O O & p ' d.~.eXjXjXjXjXjXjXjXjXjXjXjXaX5X].d.W u + O O O O         ",
"      O O O O O O O 2 c O.N.5XjXjXjXjXjXjXjXjXjXjXjXiX#XG.%.u + O O O O           ",
"        O O O O O O + e U d.+XaXjXjXjXjXjXjXjXjXjXjX9X].z.) : O O O O             ",
"          O O O O O + 7 V >.R.,XiXjXjXjXjXjXjXjXjXeX-XS.5.J : O O O               ",
"          O O O O O O 2 j ..k.(.9XjXjXjXjXjXjXjXiX5X].g.[ h & O O O               ",
"            O O O O O O 4 V $.N.,XjXjXjXjXjXjXjXiX#XS.$.j 2 O O O                 ",
"              O O O O O + e U e. XjXjXjXjXjXjXjX9X].k.Y & O O O                   ",
"                O O O O O 2 n %.R.5XaXjXjXjXjXiX#XL.2.V O O O O                   ",
"                  O O O O 2 h ..c.{.5XjXjXjXaX5X(.k.O.h O O O O                   ",
"                  O O O O & 7 S >.C.#XaXjXjXeX#XS.%.V 7 O O O                     ",
"                    O O O O & u W 7.].jXjXjX5X(.g.U 4 + O O O                     ",
"                    O O O O O : n ;.Q.aXjXjX1X~.7.c O O O O O                     ",
"                      O O O O 2 n %.Q.aXjXjX1XQ.7.j O O O O                       ",
"                      O O O O 2 V ;.~.aXjXjX1X~.7.n O O O O                       ",
"                        O O O 2 n ;.~.jXjXjX5X~.e.n O O O O                       ",
"                        O O O 2 n ;.Q.iXjXjX1XQ.7.n O O O                         ",
"                          O O 2 j O.C.-XiX9X XN.%.j O O O                         ",
"                            O : p ) g.(.-X-X~.y.[ p O                             ",
"                            O : u Y 7.L. X+XL.5.) u O                             "
};
