/* XPM */
static char *_c3fc1756ba648c3ea42e85ab256daedmLI1RdD4aiJYUjpz[] = {
/* columns rows colors chars-per-pixel */
"40 64 10 1 ",
"  c None",
". c gray97",
"X c #F8F8F8",
"o c #F9F9F9",
"O c gray98",
"+ c #FBFBFB",
"@ c gray99",
"# c #FDFDFD",
"$ c #FEFEFE",
"% c white",
/* pixels */
"            %%%%%%%%%%%%%%%%            ",
"            %%%%%%%%%%%%%%%%            ",
"            %%%%%%%%%%%%%%%%            ",
"           %%%%%%%%%%%%%%%%%%           ",
"         %%%%%%%%%%%%%%%%%%%%%%         ",
"        X%%%%%%%%%%%%%%%%%%%%%%%        ",
"        X%%%%%%%%%%%%%%%%%%%%%%X        ",
"       .X%%%%%%%%%%%%%%%%%%%%%%%%       ",
"     .XX%%%%%%%%%%%%%%%%%%%%%%%%%X%     ",
"     %%%%%%%%%%%%%%%%%%%%%%%%%%%%%%     ",
"    %%%%%%%%%%%%%%%%%%%%%%%%%%%%%%%%    ",
"    %%%%%%%%%%%%%%%%%%%%%%%%%%%%%%%%    ",
"    %%%%%%%%%%%%%%%%%%%%%%%%%%%%%%%%    ",
"    %%%%%%%%%%%%%%%%%%%%%%%%%%%%%%%%    ",
"   %%%%%%%%%%%%%%%%%%%%%%%%%%%%%%%%%%   ",
"  %%%%%%%%%%%%%%%%%%%%%%%%%%%%%%%%%%%%  ",
"%%%%%%%%%%%%%%%%%%%%%%%%%%%%%%%%%%%%%%%%",
"%%%%%%%%%%%%%%%%%%%%%%%%%%%%%%%%%%%%%%%%",
"%%%%%%%%%%%%%%%%%%%%%%%%%%%%%%%%%%%%%%%%",
"%%%%%%%%%%%%%%%%%%%%%%%%%%%%%%%%%%%%%%%%",
"%%%%%%%%%%%%%%%%%%%%%%%%%%%%%%%%%%%%%%%%",
"%%%%%%%%%%%%%%%%%%%%%%%%%%%%%%%%%%%%%%%%",
"%%%%%%%%%%%%%%%%%%%%%%%%%%%%%%%%%%%%%%%%",
"%%%%%%%%%%%%%%%%%%%%%%%%%%%%%%%%%%%%%%%%",
"%%%%%%%%%%%%%%%%%%%%%%%%%%%%%%%%%%%%%%%%",
"%%%%%%%%%%%%%%%%%%%%%%%%%%%%%%%%%%%%%%%%",
"%%%%%%%%%%%%%%%%%%%%%%%%%%%%%%%%%%%%%%%%",
"%%%%%%%%%%%%%%%%%%%%%%%%%%%%%%%%%%%%%%%%",
"%%%%%%%%%%%%%%%%%%%%%%%%%%%%%%%%%%%%%%%%",
"%%%%%%%%%%%%%%%%%%%%%%%%%%%%%%%%%%%%%%%%",
"%%%%%%%%%%%%%%%%%%%%%%%%%%%%%%%%%%%%%%%%",
"%%%%%%%%%%%%%%%%%%%%%%%%%%%%%%%%%%%%%%%%",
"%%%%%%%%%%%%%%%%%%%%%%%%%%%%%%%%%%%%%%%%",
"%%%%%%%%%%%%%%%%%%%%%%%%%%%%%%%%%%%%%%%%",
"%%%%%%%%%%%%%%%%%%%%%%%%%%%%%%%%%%%%%%%%",
"%%%%%%%%%%%%%%%%%%%%%%%%%%%%%%%%%%%%%%%%",
"%%%%%%%%%%%%%%%%%%%%%%%%%%%%%%%%%%%%%%%%",
"%%%%%%%%%%%%%%%%%%%%%%%%%%%%%%%%%%%%%%%%",
"%%%%%%%%%%%%%%%%%%%%%%%%%%%%%%%%%%%%%%%%",
"%%%%%%%%%%%%%%%%%%%%%%%%%%%%%%%%%%%%%%%%",
"%%%%%%%%%%%%%%%%%%%%%%%%%%%%%%%%%%%%%%%%",
"%%%%%%%%%%%%%%%%%%%%%%%%%%%%%%%%%%%%%%%%",
"%%%%%%%%%%%%%%%%%%%%%%%%%%%%%%%%%%%%%%%%",
"%%%%%%%%%%%%%%%%%%%%%%%%%%%%%%%%%%%%%%%%",
"%%%%%%%%%%%%%%%%%%%%%%%%%%%%%%%%%%%%%%%%",
"%%%%%%%%%%%%%%%%%%%%%%%%%%%%%%%%%%%%%%%%",
"%%%%%%%%%%%%%%%%%%%%%%%%%%%%%%%%%%%%%%%%",
"%%%%%%%%%%%%%%%%%%%%%%%%%%%%%%%%%%%%%%%%",
"  %%%%%%%%%%%%%%%%%%%%%%%%%%%%%%%%%%%%  ",
"   %%%%%%%%%%%%%%%%%%%%%%%%%%%%%%%%%%   ",
"    %%%%%%%%%%%%%%%%%%%%%%%%%%%%%%%%    ",
"    %%%%%%%%%%%%%%%%%%%%%%%%%%%%%%%%    ",
"    %%%%%%%%%%%%%%%%%%%%%%%%%%%%%%%%    ",
"    %%%%%%%%%%%%%%%%%%%%%%%%%%%%%%%%    ",
"     %%%%%%%%%%%%%%%%%%%%%%%%%%%%%%     ",
"     XX%%%%%%%%%%%%%%%%%%%%%%%%%%%%     ",
"       X%%%%%%%%%%%%%%%%%%%%%%%%X       ",
"        X%%%%%%%%%%%%%%%%%%%%%%%        ",
"        X%%%%%%%%%%%%%%%%%%%%%%%        ",
"         %%%%%%%%%%%%%%%%%%%%%%         ",
"           %%%%%%%%%%%%%%%%%%           ",
"            %%%%%%%%%%%%%%%%            ",
"            %%%%%%%%%%%%%%%%            ",
"            %%%%%%%%%%%%%%%%            "
};
