/* XPM */
static char *ccde04ee7f014760baca9a033bc59283IgTB7eD8FETcU4IA[] = {
/* columns rows colors chars-per-pixel */
"33 48 145 2 ",
"   c None",
".  c black",
"X  c #010101",
"o  c #020202",
"O  c gray1",
"+  c #040404",
"@  c gray2",
"#  c #060606",
"$  c #070707",
"%  c #090909",
"&  c gray4",
"*  c #0B0B0B",
"=  c #0C0C0C",
"-  c gray5",
";  c #101010",
":  c #111111",
">  c #161616",
",  c gray9",
"<  c #181818",
"1  c gray10",
"2  c #1B1B1B",
"3  c gray11",
"4  c #1D1D1D",
"5  c #1E1E1E",
"6  c gray12",
"7  c #202020",
"8  c #222222",
"9  c #232323",
"0  c gray14",
"q  c #282828",
"w  c #2A2A2A",
"e  c #2C2C2C",
"r  c gray18",
"t  c #2F2F2F",
"y  c #343434",
"u  c #353535",
"i  c gray21",
"p  c gray22",
"a  c #393939",
"s  c gray23",
"d  c #3C3C3C",
"f  c gray24",
"g  c #3E3E3E",
"h  c #3F3F3F",
"j  c #414141",
"k  c #434343",
"l  c gray27",
"z  c #464646",
"x  c gray28",
"c  c #484848",
"v  c #494949",
"b  c gray29",
"n  c #4B4B4B",
"m  c gray30",
"M  c #4E4E4E",
"N  c gray31",
"B  c #505050",
"V  c #515151",
"C  c gray32",
"Z  c #535353",
"A  c gray33",
"S  c #555555",
"D  c #565656",
"F  c gray34",
"G  c gray35",
"H  c #5A5A5A",
"J  c #5B5B5B",
"K  c gray37",
"L  c #5F5F5F",
"P  c gray38",
"I  c gray40",
"U  c gray42",
"Y  c #6C6C6C",
"T  c #6D6D6D",
"R  c #717171",
"E  c gray45",
"W  c #767676",
"Q  c #777777",
"!  c #797979",
"~  c gray48",
"^  c #7B7B7B",
"/  c gray50",
"(  c #808080",
")  c gray51",
"_  c #838383",
"`  c #848484",
"'  c gray53",
"]  c gray54",
"[  c #8B8B8B",
"{  c gray55",
"}  c #8D8D8D",
"|  c #8E8E8E",
" . c gray58",
".. c #979797",
"X. c gray61",
"o. c #9D9D9D",
"O. c #9F9F9F",
"+. c #A0A0A0",
"@. c gray63",
"#. c #A2A2A2",
"$. c #A7A7A7",
"%. c gray69",
"&. c #B1B1B1",
"*. c gray70",
"=. c #B4B4B4",
"-. c gray71",
";. c gray74",
":. c gray75",
">. c gray78",
",. c #CACACA",
"<. c #CBCBCB",
"1. c gray80",
"2. c #CDCDCD",
"3. c #CECECE",
"4. c gray81",
"5. c #D0D0D0",
"6. c gray82",
"7. c #D2D2D2",
"8. c gray84",
"9. c gray86",
"0. c gray88",
"q. c #E1E1E1",
"w. c gray89",
"e. c #E4E4E4",
"r. c #E9E9E9",
"t. c #EAEAEA",
"y. c #ECECEC",
"u. c gray93",
"i. c #EFEFEF",
"p. c gray94",
"a. c #F1F1F1",
"s. c gray95",
"d. c #F3F3F3",
"f. c #F4F4F4",
"g. c gray96",
"h. c #F6F6F6",
"j. c gray97",
"k. c #F8F8F8",
"l. c #F9F9F9",
"z. c gray98",
"x. c #FBFBFB",
"c. c gray99",
"v. c #FDFDFD",
"b. c #FEFEFE",
"n. c white",
/* pixels */
"                              O O + O                             ",
"                              O w n O                             ",
"                              O n ! O                             ",
"                              O 0 j O O                           ",
"                              O f I O O                           ",
"                              + S | O O                           ",
"                              + C [ O O                           ",
"                              + S | O O                           ",
"                              + C [ O O                           ",
"                              & K  .& O                           ",
"                              y %.,.M O                           ",
"                              C i.g.( O                           ",
"                              M i.g.( O                           ",
"                              Q s.g.X.3                           ",
"                            j 4.n.n.0.P O                         ",
"                          , ! i.n.n.g.X.9                         ",
"                        O y ,.n.n.n.n.0.J O                       ",
"                      O 2 / i.n.n.n.n.g.@.w O O                   ",
"                  O O 2 / t.n.n.n.n.n.n.g.@.w O O                 ",
"              O O O 3 ( e.n.n.n.n.n.n.n.n.g.X.e O O O             ",
"          O O O - y ( t.n.n.n.n.n.n.n.n.n.n.g.@.f 3 O O O         ",
"  O O O O - y z Q 4.t.n.n.n.n.n.n.n.n.n.n.n.n.g.7...j f , O O O O ",
"3 y w M M U ,.9.i.n.n.n.n.n.n.n.n.n.n.n.n.n.n.n.n.g.9.7.( M f 3 y ",
"y M z [ [ X.t.n.x.n.n.n.n.n.n.n.n.n.n.n.n.n.n.n.n.n.n.s.*.[ T y J ",
"+ & + & & 9 Q | *.i.x.n.n.n.n.n.n.n.n.n.n.n.n.x.s.,.| ( s + & + & ",
"    O O O O O + e ! =.x.n.n.n.n.n.n.n.n.n.n.x.4./ n + + O O       ",
"          O O O O O s *.x.n.n.n.n.n.n.n.n.n.4.J + O O             ",
"              O O O O s *.x.n.n.n.n.n.n.n.,.J + O                 ",
"                  O O O f *.x.n.n.n.n.x.4.J + O                   ",
"                    O O O z 9.n.n.n.n.t.R + O                     ",
"                      O O 2 @.g.n.n.x.:.y O                       ",
"                        O O z 0.n.n.i.R O O                       ",
"                        O O 3 X.x.x.;.y O                         ",
"                          O O n s.g.( O O                         ",
"                          O O n s.g./ O O                         ",
"                            O f 8.0.T O                           ",
"                            O , ! $.9 O                           ",
"                              O M [ O                             ",
"                              O S [ O                             ",
"                              + C [ O                             ",
"                              + S | O                             ",
"                                M ( O                             ",
"                                w z O                             ",
"                                s K O                             ",
"                                z R O                             ",
"                                ; 2 O                             ",
"                                3 w O                             ",
"                                y C O                             "
};
