/* XPM */
static char *_2f9df47195d470cfff1a4c7f3ba8bcaWex2e5ATgltkDbJk[] = {
/* columns rows colors chars-per-pixel */
"50 50 256 2 ",
"   c black",
".  c #010101",
"X  c #020202",
"o  c gray1",
"O  c #040404",
"+  c gray2",
"@  c #060606",
"#  c #070707",
"$  c gray3",
"%  c #090909",
"&  c gray4",
"*  c #0B0B0B",
"=  c #0C0C0C",
"-  c gray5",
";  c #0E0E0E",
":  c gray6",
">  c #101010",
",  c #111111",
"<  c gray7",
"1  c #131313",
"2  c gray8",
"3  c #151515",
"4  c #161616",
"5  c gray9",
"6  c #181818",
"7  c #191919",
"8  c gray10",
"9  c #1B1B1B",
"0  c gray11",
"q  c #1D1D1D",
"w  c #1E1E1E",
"e  c gray12",
"r  c #202020",
"t  c gray13",
"y  c #222222",
"u  c #232323",
"i  c gray14",
"p  c #252525",
"a  c gray15",
"s  c #272727",
"d  c #282828",
"f  c gray16",
"g  c #2A2A2A",
"h  c gray17",
"j  c #2C2C2C",
"k  c #2D2D2D",
"l  c gray18",
"z  c #2F2F2F",
"x  c gray19",
"c  c #313131",
"v  c #323232",
"b  c gray20",
"n  c #343434",
"m  c #353535",
"M  c gray21",
"N  c #373737",
"B  c gray22",
"V  c #393939",
"C  c #3A3A3A",
"Z  c gray23",
"A  c #3C3C3C",
"S  c gray24",
"D  c #3E3E3E",
"F  c #3F3F3F",
"G  c gray25",
"H  c #414141",
"J  c gray26",
"K  c #434343",
"L  c #444444",
"P  c gray27",
"I  c #464646",
"U  c gray28",
"Y  c #484848",
"T  c #494949",
"R  c gray29",
"E  c #4B4B4B",
"W  c #4C4C4C",
"Q  c gray30",
"!  c #4E4E4E",
"~  c gray31",
"^  c #505050",
"/  c #515151",
"(  c gray32",
")  c #535353",
"_  c gray33",
"`  c #555555",
"'  c #565656",
"]  c gray34",
"[  c #585858",
"{  c gray35",
"}  c #5A5A5A",
"|  c #5B5B5B",
" . c gray36",
".. c #5D5D5D",
"X. c gray37",
"o. c #5F5F5F",
"O. c #606060",
"+. c gray38",
"@. c #626262",
"#. c gray39",
"$. c #646464",
"%. c #656565",
"&. c gray40",
"*. c #676767",
"=. c #686868",
"-. c DimGray",
";. c #6A6A6A",
":. c gray42",
">. c #6C6C6C",
",. c #6D6D6D",
"<. c gray43",
"1. c #6F6F6F",
"2. c gray44",
"3. c #717171",
"4. c #727272",
"5. c gray45",
"6. c #747474",
"7. c gray46",
"8. c #767676",
"9. c #777777",
"0. c gray47",
"q. c #797979",
"w. c gray48",
"e. c #7B7B7B",
"r. c #7C7C7C",
"t. c gray49",
"y. c #7E7E7E",
"u. c gray50",
"i. c #808080",
"p. c #818181",
"a. c gray51",
"s. c #838383",
"d. c #848484",
"f. c gray52",
"g. c #868686",
"h. c gray53",
"j. c #888888",
"k. c #898989",
"l. c gray54",
"z. c #8B8B8B",
"x. c gray55",
"c. c #8D8D8D",
"v. c #8E8E8E",
"b. c gray56",
"n. c #909090",
"m. c gray57",
"M. c #929292",
"N. c #939393",
"B. c gray58",
"V. c #959595",
"C. c gray59",
"Z. c #979797",
"A. c #989898",
"S. c gray60",
"D. c #9A9A9A",
"F. c #9B9B9B",
"G. c gray61",
"H. c #9D9D9D",
"J. c gray62",
"K. c #9F9F9F",
"L. c #A0A0A0",
"P. c gray63",
"I. c #A2A2A2",
"U. c gray64",
"Y. c #A4A4A4",
"T. c #A5A5A5",
"R. c gray65",
"E. c #A7A7A7",
"W. c gray66",
"Q. c #A9A9A9",
"!. c #AAAAAA",
"~. c gray67",
"^. c #ACACAC",
"/. c gray68",
"(. c #AEAEAE",
"). c #AFAFAF",
"_. c gray69",
"`. c #B1B1B1",
"'. c #B2B2B2",
"]. c gray70",
"[. c #B4B4B4",
"{. c gray71",
"}. c #B6B6B6",
"|. c #B7B7B7",
" X c gray72",
".X c #B9B9B9",
"XX c gray73",
"oX c #BBBBBB",
"OX c #BCBCBC",
"+X c gray74",
"@X c gray",
"#X c gray75",
"$X c #C0C0C0",
"%X c #C1C1C1",
"&X c gray76",
"*X c #C3C3C3",
"=X c gray77",
"-X c #C5C5C5",
";X c #C6C6C6",
":X c gray78",
">X c #C8C8C8",
",X c gray79",
"<X c #CACACA",
"1X c #CBCBCB",
"2X c gray80",
"3X c #CDCDCD",
"4X c #CECECE",
"5X c gray81",
"6X c #D0D0D0",
"7X c gray82",
"8X c #D2D2D2",
"9X c LightGray",
"0X c gray83",
"qX c #D5D5D5",
"wX c gray84",
"eX c #D7D7D7",
"rX c #D8D8D8",
"tX c gray85",
"yX c #DADADA",
"uX c gray86",
"iX c gainsboro",
"pX c #DDDDDD",
"aX c gray87",
"sX c #DFDFDF",
"dX c gray88",
"fX c #E1E1E1",
"gX c #E2E2E2",
"hX c gray89",
"jX c #E4E4E4",
"kX c gray90",
"lX c #E6E6E6",
"zX c #E7E7E7",
"xX c gray91",
"cX c #E9E9E9",
"vX c #EAEAEA",
"bX c gray92",
"nX c #ECECEC",
"mX c gray93",
"MX c #EEEEEE",
"NX c #EFEFEF",
"BX c gray94",
"VX c #F1F1F1",
"CX c gray95",
"ZX c #F3F3F3",
"AX c #F4F4F4",
"SX c gray96",
"DX c #F6F6F6",
"FX c gray97",
"GX c #F8F8F8",
"HX c #F9F9F9",
"JX c gray98",
"KX c #FBFBFB",
"LX c gray99",
"PX c #FDFDFD",
"IX c #FEFEFE",
"UX c white",
/* pixels */
"MXMXCXSXxX}.:.N P h.4XBXSXBXMXMXMXMXMXMXMXMXMXMXMXMXMXCXSXxX}.:.N P h.4XBXSXBXMXMXMXMXMXMXMXMXMXMXMX",
"yXyXaXfXqXW.$.m H t.+XiXfXiXyXyXyXyXyXyXyXyXyXyXyXyXyXaXfXqXW.$.m H t.+XiXfXiXyXyXyXyXyXyXyXyXyXyXyX",
"W.W.~./.Y.a.! h n @.M.Q./.Q.W.W.W.W.!.~.~.~.Q.W.W.W.W.~./.Y.a.! h n @.M.Q./.Q.W.W.W.W.!.~.~.!.Q.W.W.",
"#.#.$.%.O.! v e i S ] #.%.#.#.@.#.#.&.=.-.*.%.#.@.@.#.$.%.O.! v e i S ] #.%.#.#.@.#.#.&.=.-.*.%.#.@.",
"n n n n b z f i p h c n n n n n n b c z z x v n n n n n n b z f i p h c n n n n n n b c z z x v n n ",
"W W W W W ! ~ / ^ ~ Q W W W Q ! Q I m u q f A R ! ! W W W W ! ~ / ^ ~ Q W W W Q ! Q I m u q g A R ~ ",
"N.N.M.M.N.B.C.A.Z.V.N.M.M.M.N.Z.V.d.| v p G >.c.Z.V.N.M.M.N.B.C.A.Z.V.N.M.M.M.N.Z.V.d.| v p J ,.x.S.",
",X,X,X,X,X<X<X<X<X<X<X,X,X,X<X5X3X{.r.K x ' B.%X5X3X,X,X,X,X<X<X<X<X<X<X,X,X,X<X5X3X{.r.K x { V.%X8X",
"oXoXoXoXoXoXoXoXXXXXoXoXOXOX+X%X@XE.5.D k ^ k.].$X@XoXoXoXoXoXoXoXXXXXoXoXOXOX+X%X@XE.5.D k ( l.].*X",
"9.9.9.9.9.9.9.9.9.8.9.0.e.t.t.y.w.:.E h r M [ 4.w.q.9.9.9.9.9.9.9.9.8.9.0.e.t.t.y.w.:.E h r N { 4.r.",
"Z Z Z Z Z Z Z Z Z Z Z C C C Z Z Z N k u r a c V A Z Z Z Z Z Z Z Z Z Z Z C C C Z Z Z N k u r s c V A ",
"G G G G G G G G G H F V h r r g N F J J H H G G F F G G G G G G G G H F V h r r g N F J J H H G G F ",
"i.i.i.i.i.i.i.i.p.d.i.>.U s p J =.u.h.h.g.f.a.i.i.i.i.i.i.i.i.i.i.p.d.i.>.U s p J =.u.h.h.g.d.a.i.i.",
"$X$X$X$X$X$X$X$X&X;X$XP.=.M b O.F.@X:X=X&X&X%X%X$X$X$X$X$X$X$X$X$X&X;X$XP.=.M b O.F.@X:X=X&X&X%X%X$X",
"-X;X;X;X;X;X;X;X>X2X-XR.;.B n #.K.*X2X>X-X-X-X-X-X-X-X-X-X;X;X;X;X>X2X;XR.;.B n #.K.*X2X>X-X-X-X-X-X",
"k.l.z.v.b.v.x.l.z.c.k.6.E f s I 1.j.v.z.k.k.k.k.k.k.k.k.k.k.z.c.b.n.m.l.6.E f s I 1.j.v.z.k.k.k.k.k.",
"P I U Y T Y U I I U P S k r e h Z P U I P P P P P P P P P I I Y T T T I S k r e h Z P U I P P P P P ",
"B m z s y i j n N N N M m n n m M N N N N N N N N N N N N M x d y u h b M M m n m M N N N N N N N N ",
"4.-.) n e f I #.1.2.<.1.3.6.6.4.1.<.,.,.,.,.,.,.,.,.,.1.3.:.' M r a J O.2.6.6.6.4.1.<.,.,.,.,.,.,.,.",
"oX^.f.^ h A 1.P.}..X{.[.{.}.}.}.[.[.[.[.[.[.[.[.[.[.[.|..X).l.) k N =.G.}.oX X}.}.[.[.[.[.[.[.[.[.[.",
"qX*XZ.} c L y.|.5X8X3X2X2X2X2X2X2X2X2X2X2X2X2X2X2X2X2X6X8X:XH.X.b D 8.`.4X8X4X2X2X2X2X2X2X2X2X2X2X2X",
"I.V.6.I a m +.x.J.L.G.F.F.F.F.F.F.G.J.L.L.K.H.G.F.F.F.J.L.A.0.T d c } h.H.L.H.F.F.F.G.J.L.L.K.H.G.F.",
"] / H j q i B W ` ' _ _ _ _ _ _ _ ` ' [ { [ ' _ _ _ _ ` ' ( K k w y M R _ ' _ _ _ _ ` ' [ { [ ' _ _ ",
"b v x j g h l c b b v v v v v b b c k d s g l v b b v b b v x k g h l c v b v v b b c k d s g l v b ",
" . .X.O.@.+.o... . . . . . . .X..._ S p w k I { X.X. . . . .X.O.@.+.o... . . . .X..._ S p w l U [ o.",
"Y.Y.T.E.W.W.R.T.Y.Y.Y.Y.Y.Y.T.Q.E.N.&.N d U q.J.Q.E.Y.Y.Y.Y.T.E.W.W.R.T.Y.Y.Y.T.Q.E.N.&.N d T w.H.~.",
"4X4X4X4X4X4X4X4X4X4X4X4X4X4X5X9X7X Xu.L c [ Z.-X0X8X4X4X4X4X4X4X4X4X4X4X4X4X4X5X9X7X Xu.L c | A.-XwX",
"^.^.^.^.^./.)._.).(./.^.^.^./.`.).D.;.C g R y.T.`._.^.^.^.^./.)._.).(./.^.^.^./.`.).D.;.C g W i.T.[.",
"%.%.$.$.%.&.-.:.;.=.&.$.$.$.%.*.&.| H s w x W +.*.&.%.$.$.%.&.-.:.;.=.&.$.$.$.%.*.&.| H s w c Q +.-.",
"n n n n n v x z z c b n n n n n n v j a i d l b n n n n n n v x z z c b n n n n n n v j a i d l b m ",
"W W Q ! E D h w t v L Q ! Q W W W Q ~ ^ / ^ ! Q W W W Q ! E D h w t v L Q ! Q W W W Q ~ ^ / ^ ! Q W ",
"N.N.V.Z.b.3.P a l ' i.B.Z.B.M.M.M.N.V.Z.A.C.B.N.M.M.N.V.Z.b.3.P a l ' i.B.Z.B.M.M.M.N.V.Z.A.C.B.N.M.",
",X,X3X5X=XF...v S 6.).1X5X1X,X,X,X,X<X<X<X<X<X,X,X,X,X3X6X=XF...v S 6.).1X5X1X,X,X,X,X<X<X<X<X<X,X,X",
"oXoX@X$X}.n.' z V >.I.OX$XOXoXOXOX+XOXoXoXXXXXoXoXoXoX@X$X}.n.' z V >.I.+X%X@X+XOXoXoXXXXXoXoXoXoXoX",
"9.9.q.w.6...C y d U =.0.w.9.0.w.r.t.e.q.9.8.9.9.9.9.9.q.w.6...C y d U =.q.y.t.t.e.0.9.8.9.9.9.9.9.9.",
"Z Z Z A C v d r y j M Z A Z C C C C C C Z Z Z Z Z Z Z Z A C v d r y j M Z Z Z C C C Z Z Z Z Z Z Z Z ",
"G G F F G G H H H G G G H G C k t e d M D H G G G G G F F G G H H J J G B h r r g N F H G G G G G G ",
"i.i.i.i.i.a.d.g.g.s.p.p.s.p.2.W g u S $.t.d.a.i.i.i.i.i.i.i.a.d.g.h.h.p.>.U s p J =.u.d.a.i.i.i.i.i.",
"$X$X$X$X%X%X&X&X&X%X%X&X;X&XE.1.Z x { B.OX;X=X$X$X$X$X$X$X%X%X&X&X=X:X%XP.=.M b O.F.@X;X*X$X$X$X$X$X",
":X:X;X;X;X-X-X-X-X-X-X:X1X:X^.4.A c | A.%X2X,X;X;X;X;X;X;X;X-X-X-X>X2X-XR.;.B n #.K.*X2X>X-X-X-X-X-X",
"n.n.v.x.l.k.k.k.k.k.k.l.c.l.0./ j p H ;.g.c.z.l.x.v.b.v.x.l.k.k.k.z.c.k.6.E f s I 1.j.v.z.k.k.k.k.k.",
"T T Y U I P P P P P P I U I F z t w f V L U I I U Y T Y U I P P P I U P S k r e h Z P U I P P P P P ",
"w r p k n N N N N N N N N N M m n n m M N N N m l a t p k n N N N N N N M m n n m M N N N N N N N N ",
"> 7 l E %.2.2.<.,.,.,.,.,.,.1.3.5.6.4.1.<.2.2.=.! z e j R %.2.2.<.,.,.,.1.3.6.6.4.1.<.,.,.,.,.,.,.,.",
", r L 0.R. X X[.[.[.[.[.[.[.[.{.}.}.}.{.[. X XQ.t.U g H 8.R. X X[.[.[.[.[.{.}.}.}.[.[.[.[.[.[.[.[.[.",
"1 p ! j.OX7X7X3X2X2X2X2X2X2X2X2X2X2X2X2X2X7X7X%Xv.^ x R g.OX7X7X3X2X2X2X2X2X2X2X2X2X2X2X2X2X2X2X2X2X",
"4 y G :.M.P.P.J.H.H.H.H.H.H.H.H.H.H.H.H.H.P.P.V.2.J g D ;.M.P.P.J.H.H.H.H.H.H.H.H.H.H.H.H.H.H.H.H.H.",
"7 e k H ) } } [ [ [ [ [ [ [ [ [ [ [ [ [ [ } } _ K l u j G ) } } [ [ [ [ [ [ [ [ [ [ [ [ [ [ [ [ [ [ ",
"0 0 e y p a a a a a a a a a a a a a a a a a a p y e q e y p a a a a a a a a a a a a a a a a a a a a ",
"0 0 7 4 1 < < < < < < < < < < < < < < < < < < 1 4 7 9 7 4 1 < < < < < < < < < < < < < < < < < < < < "
};
